<?xml version="1.0" encoding="UTF-8"?>
<svg version="1.1" xmlns="http://www.w3.org/2000/svg" width="1000" height="1000">
<path d="M0 0 C330 0 660 0 1000 0 C1000 330 1000 660 1000 1000 C670 1000 340 1000 0 1000 C0 670 0 340 0 0 Z " fill="#A6A6A6" transform="translate(0,0)"/>
<path d="M0 0 C330 0 660 0 1000 0 C1000 330 1000 660 1000 1000 C670 1000 340 1000 0 1000 C0 670 0 340 0 0 Z M609 96 C608.77860352 96.8971875 608.55720703 97.794375 608.32910156 98.71875 C607.49415785 102.08285204 606.65075978 105.44460582 605.80175781 108.80517578 C605.4377306 110.25323094 605.07698065 111.70211443 604.71972656 113.15185547 C599.59461403 133.92430878 599.59461403 133.92430878 592 140 C582.00684922 145.94134695 572.64693361 143.9817415 561.625 142.125 C544.13071533 139.1984468 526.98336336 137.63464337 509.25 137.75 C508.37748596 137.75343414 507.50497192 137.75686829 506.60601807 137.76040649 C492.98957588 137.82298976 479.50773533 138.14197396 466 140 C464.8970459 140.15065918 463.7940918 140.30131836 462.65771484 140.45654297 C426.88892113 145.5301653 392.95311447 155.15270875 360 170 C358.81011475 170.527146 358.81011475 170.527146 357.59619141 171.06494141 C332.68073749 182.14248946 309.26471218 196.96006507 288 214 C287.05769531 214.74894531 286.11539063 215.49789062 285.14453125 216.26953125 C279.42146359 220.87865908 273.93960415 225.70140392 268.5390625 230.68359375 C266.46129248 232.57915932 264.3485399 234.38969872 262.1875 236.1875 C256.20085882 241.38577691 250.96291794 247.39565784 245.61865234 253.23730469 C244.26359585 254.71294691 242.89334784 256.17461977 241.51953125 257.6328125 C235.2394887 264.38185641 229.80655961 271.71926763 224.36328125 279.14453125 C223.19958241 280.72836205 222.02297746 282.30269673 220.84375 283.875 C199.73535321 312.25022191 183.92916492 343.78868964 172 377 C171.55269531 378.21816406 171.10539062 379.43632812 170.64453125 380.69140625 C144.21616888 455.87111668 146.18695953 543.09097364 175.1262207 617.16381836 C178.95203609 626.96528804 181.39250756 635.22108698 177 645.375 C172.25882487 654.95612475 160.68614466 658.75051384 151.5 662.875 C150.18709586 663.47307195 148.87459229 664.07202404 147.5625 664.671875 C144.37954926 666.12474926 141.19135969 667.56567387 138 669 C140.0227007 675.5140566 143.13553672 681.20854659 146.375 687.1875 C147.31557251 688.92483398 147.31557251 688.92483398 148.27514648 690.69726562 C160.65592049 713.4117241 175.45245307 734.15338378 192 754 C192.98191465 755.18998551 193.96368952 756.38008638 194.9453125 757.5703125 C199.71971779 763.32243974 204.64907132 768.80131398 210.015625 774.015625 C211.81581833 775.81581833 213.44600171 777.66086767 215.0625 779.625 C217.72871799 782.81860177 220.70769989 785.43759385 223.875 788.125 C226.13139303 790.11593503 228.21511543 792.21769016 230.3125 794.375 C234.28709772 798.39015484 238.47136495 801.97841423 242.8828125 805.50390625 C245.12918123 807.30269024 247.34858513 809.11816255 249.5546875 810.96484375 C298.39990965 851.6671076 380.72274768 899.42166883 447 897 C446.9278125 897.54785156 446.855625 898.09570312 446.78125 898.66015625 C444.5234874 916.19816551 444.5234874 916.19816551 451 932 C458.13633978 939.86788925 465.4725736 942.32542851 475.85583496 942.91027832 C483.47808636 943.22922821 491.11425502 943.18587649 498.74169922 943.18530273 C501.96465532 943.18747616 505.187261 943.20564537 508.41015625 943.22460938 C521.40610969 943.26047138 534.10437532 942.58808062 547 941 C548.30759277 940.84861572 549.61518555 940.69723145 550.96240234 940.54125977 C568.15254167 938.50242929 585.10175609 935.74670773 602 932 C603.3597998 931.71165283 603.3597998 931.71165283 604.74707031 931.41748047 C633.88026243 925.18067876 663.11734475 914.78526552 690 902 C691.71533936 901.195625 691.71533936 901.195625 693.46533203 900.375 C715.61740037 889.98357539 736.69716727 878.70110734 757 865 C757.84916992 864.42701172 758.69833984 863.85402344 759.57324219 863.26367188 C770.56586984 855.80185788 781.09589026 847.95482126 791.28369141 839.42822266 C793.74678948 837.37856068 796.25168921 835.38148927 798.75 833.375 C804.14343094 828.95415497 809.2694268 824.26867049 814.3671875 819.51513672 C816.11079826 817.8971869 817.86686857 816.29355939 819.625 814.69140625 C825.19984553 809.59377339 830.65762299 804.55921657 835.50390625 798.74609375 C837.04235391 796.95056867 838.67293727 795.32780988 840.375 793.6875 C844.06464842 790.05511885 847.26017297 786.0919595 850.5 782.05859375 C852.22229906 779.95146849 853.95428686 777.88909197 855.75 775.84765625 C913.00245688 710.74856291 946.70706441 626.0444777 959 541 C959.10795898 540.27522461 959.21591797 539.55044922 959.32714844 538.80371094 C960.00370125 534.2136304 960.53674128 529.6156144 961 525 C961.13535156 523.71053467 961.13535156 523.71053467 961.2734375 522.39501953 C962.85106678 506.78661635 963.20978501 491.23720677 963.25 475.5625 C963.25517639 474.63166595 963.26035278 473.70083191 963.26568604 472.74179077 C963.97596189 451.96300436 963.97596189 451.96300436 955 434 C947.342631 426.78561929 940.01543797 424.52965866 929.609375 424.76171875 C923.35720164 425.17447045 917.19076687 426.04098771 911 427 C910.9582666 426.42459473 910.9165332 425.84918945 910.87353516 425.25634766 C910.27033971 418.15157708 908.94461389 411.32434704 907.375 404.375 C907.10993652 403.19784424 906.84487305 402.02068848 906.57177734 400.80786133 C900.37764617 373.88415821 891.27684904 348.19274465 880 323 C879.67032227 322.25943359 879.34064453 321.51886719 879.00097656 320.75585938 C865.67762764 291.02517822 848.19241818 263.50797197 828 238 C827.26265625 237.06800781 826.5253125 236.13601562 825.765625 235.17578125 C820.91687326 229.14922989 815.80326758 223.42587753 810.54296875 217.76171875 C808.53828926 215.58459371 806.598748 213.38287232 804.6875 211.125 C797.51981091 202.86657561 789.58240719 194.95434455 781.234375 187.890625 C779.34993207 186.29609636 777.49231037 184.67904114 775.640625 183.046875 C767.66402799 176.03220142 759.56374041 169.2899692 751 163 C750.06945801 162.31454102 750.06945801 162.31454102 749.12011719 161.61523438 C715.80677573 137.22835043 679.37950153 118.46651277 640.33886719 105.16113281 C638.06420829 104.37009174 635.79933434 103.55047132 633.54394531 102.70605469 C625.42191569 99.67585194 617.51792008 97.59225558 609 96 Z " fill="#A5A5A5" transform="translate(0,0)"/>
<path d="M0 0 C1.28100586 0.20133545 2.56201172 0.4026709 3.88183594 0.61010742 C13.35115446 2.19959107 24.06553133 4.01450437 30.1640625 12.23828125 C33.10092038 17.17177992 34.02285014 21.21300001 34.0625 26.875 C34.07667969 27.79023437 34.09085938 28.70546875 34.10546875 29.6484375 C33.84681471 32.84873324 32.9940349 35.50116338 31.875 38.5 C32.67035156 38.66113281 33.46570313 38.82226562 34.28515625 38.98828125 C56.80795395 44.07096608 78.92672229 52.90791504 99.875 62.5 C100.77557129 62.90653809 101.67614258 63.31307617 102.60400391 63.73193359 C142.80010639 81.96242064 179.68187013 107.35989198 211.875 137.5 C213.45381243 138.94514852 215.03744197 140.38488994 216.62133789 141.82446289 C223.45046437 148.04040513 229.98170272 154.35179005 236.0078125 161.35546875 C238.00653645 163.65107429 240.06445229 165.884796 242.125 168.125 C287.54298931 218.59794259 341.4685783 306.71056862 338.875 377.5 C337.875 378.5 337.875 378.5 334.3125 378.5625 C333.178125 378.541875 332.04375 378.52125 330.875 378.5 C330.66931396 377.50484375 330.46362793 376.5096875 330.25170898 375.484375 C322.97810909 340.43947621 313.5324694 307.24512965 298.875 274.5 C298.54532227 273.75943359 298.21564453 273.01886719 297.87597656 272.25585938 C284.55262764 242.52517822 267.06741818 215.00797197 246.875 189.5 C246.13765625 188.56800781 245.4003125 187.63601562 244.640625 186.67578125 C239.79303894 180.65067872 234.68066121 174.9286499 229.421875 169.265625 C227.39640015 167.06618299 225.43405519 164.84123829 223.5 162.5625 C216.65764432 154.68142526 209.10269239 147.1776527 201.14453125 140.42578125 C199.24846671 138.81690033 197.37705317 137.18710513 195.51171875 135.54296875 C187.53608355 128.53001764 179.43724861 121.78887349 170.875 115.5 C169.94445801 114.81454102 169.94445801 114.81454102 168.99511719 114.11523438 C135.67096529 89.7204367 99.26492678 71.02955322 60.23779297 57.66381836 C56.65755487 56.4247451 53.09451405 55.14247936 49.53125 53.85546875 C44.71814531 52.13081196 39.92812847 50.54524968 35 49.1875 C33.82695313 48.86136719 32.65390625 48.53523438 31.4453125 48.19921875 C30.59710937 47.96847656 29.74890625 47.73773438 28.875 47.5 C28.72611328 49.34078125 28.72611328 49.34078125 28.57421875 51.21875 C27.89129858 57.31139906 26.32237877 63.10313706 24.6875 69 C24.26887695 70.61455078 24.26887695 70.61455078 23.84179688 72.26171875 C21.64425107 80.22721589 18.7698138 88.50959417 11.3125 92.9375 C10.178125 93.453125 9.04375 93.96875 7.875 94.5 C7.09125 94.9125 6.3075 95.325 5.5 95.75 C-2.26393501 97.96826714 -10.72466236 95.9348239 -18.5 94.625 C-35.99428467 91.6984468 -53.14163664 90.13464337 -70.875 90.25 C-72.18377106 90.25515121 -72.18377106 90.25515121 -73.51898193 90.26040649 C-87.13542412 90.32298976 -100.61726467 90.64197396 -114.125 92.5 C-115.2279541 92.65065918 -116.3309082 92.80131836 -117.46728516 92.95654297 C-153.23607887 98.0301653 -187.17188553 107.65270875 -220.125 122.5 C-220.91825684 122.85143066 -221.71151367 123.20286133 -222.52880859 123.56494141 C-247.44426251 134.64248946 -270.86028782 149.46006507 -292.125 166.5 C-293.06730469 167.24894531 -294.00960937 167.99789062 -294.98046875 168.76953125 C-300.70065508 173.37633858 -306.17972212 178.19674582 -311.578125 183.17578125 C-313.70048748 185.11259977 -315.85977973 186.96931465 -318.0625 188.8125 C-323.35616047 193.41332965 -327.96099299 198.68973652 -332.65527344 203.88623047 C-333.9855165 205.34684619 -335.33913045 206.78609259 -336.6953125 208.22265625 C-343.31879566 215.28273557 -349.07590029 222.8554944 -354.77783203 230.66064453 C-355.9336198 232.23869909 -357.10405908 233.8060044 -358.27734375 235.37109375 C-379.39277344 263.7409042 -395.1962231 295.28976989 -407.125 328.5 C-407.57230469 329.71816406 -408.01960938 330.93632812 -408.48046875 332.19140625 C-434.90883112 407.37111668 -432.93804047 494.59097364 -403.9987793 568.66381836 C-400.60210007 577.3658714 -397.98577531 584.95154362 -401.01953125 594.23828125 C-405.72370927 604.85808112 -414.38155039 608.95757986 -424.50610352 613.50683594 C-426.45573301 614.38319575 -428.39714579 615.27603401 -430.33789062 616.171875 C-439.79753345 620.5 -439.79753345 620.5 -442.125 620.5 C-425.31407046 653.92784292 -405.53543306 684.12287157 -381.125 712.5 C-380.135 713.66015625 -380.135 713.66015625 -379.125 714.84375 C-375.81444 718.68636429 -372.36015869 722.30196199 -368.73828125 725.8515625 C-367.125 727.5 -367.125 727.5 -364.6875 730.5 C-362.08423274 733.54772752 -359.32875242 736.00136477 -356.28515625 738.58984375 C-354.01848004 740.59419215 -351.92136736 742.7057715 -349.8125 744.875 C-345.83790228 748.89015484 -341.65363505 752.47841423 -337.2421875 756.00390625 C-334.99581877 757.80269024 -332.77641487 759.61816255 -330.5703125 761.46484375 C-274.19934273 808.43824226 -204.94629465 836.174006 -133.125 848.5 C-133.455 851.47 -133.785 854.44 -134.125 857.5 C-210.26051393 849.26701446 -283.92709142 813.53030554 -342.125 764.5 C-342.94846924 763.81188232 -342.94846924 763.81188232 -343.78857422 763.10986328 C-351.61225838 756.56386768 -359.02294427 749.83074446 -366.125 742.5 C-368.92201279 739.68418376 -371.74224363 736.89372307 -374.578125 734.1171875 C-381.91516487 726.90616733 -388.78731576 719.61980986 -395.125 711.5 C-396.04058257 710.37175731 -396.95870569 709.24557316 -397.87890625 708.12109375 C-418.37601152 682.99495446 -435.88834861 655.64823137 -450.125 626.5 C-450.79611816 626.72051025 -451.46723633 626.94102051 -452.15869141 627.16821289 C-453.7594401 627.69417318 -455.3601888 628.22013346 -456.9609375 628.74609375 C-459.13531799 629.45179729 -459.13531799 629.45179729 -461.125 630.5 C-469.37247379 631.79790922 -476.42558467 629.34215168 -483.125 624.5 C-487.74432861 619.07822005 -490.04111303 613.27958229 -492.4375 606.625 C-493.01226074 605.05854736 -493.01226074 605.05854736 -493.59863281 603.46044922 C-497.7833118 591.91727916 -501.5559485 580.24668407 -505.125 568.5 C-505.4960083 567.28304443 -505.4960083 567.28304443 -505.87451172 566.04150391 C-522.93571009 509.37786648 -527.39076611 446.0156825 -519.125 387.5 C-518.90021973 385.86780518 -518.90021973 385.86780518 -518.67089844 384.20263672 C-516.55259215 369.14737067 -513.63729827 354.28913007 -510.125 339.5 C-509.87911133 338.45650391 -509.63322266 337.41300781 -509.37988281 336.33789062 C-494.52784266 274.13449034 -465.52030161 216.69723915 -426.125 166.5 C-425.40828125 165.57960937 -424.6915625 164.65921875 -423.953125 163.7109375 C-409.90650989 145.89147122 -394.59029581 128.20303428 -377.33203125 113.4296875 C-375.17895349 111.5471735 -373.08853569 109.60670046 -371.00146484 107.65161133 C-364.56139003 101.63982767 -357.80805294 96.15994963 -350.81591797 90.80566406 C-349.26038584 89.60453992 -347.72484685 88.37764022 -346.19140625 87.1484375 C-330.85538472 74.96923315 -314.16865718 64.13964831 -297.125 54.5 C-296.34576172 54.05769043 -295.56652344 53.61538086 -294.76367188 53.15966797 C-272.85160774 40.79548075 -250.46679264 30.16625323 -226.84033203 21.49853516 C-224.60385281 20.67609315 -222.3762765 19.83600993 -220.15234375 18.98046875 C-210.59524109 15.3922836 -200.75855991 12.8299424 -190.89697266 10.23193359 C-188.25568699 9.53450763 -185.61772684 8.82576424 -182.98046875 8.11328125 C-181.36208463 7.67929404 -179.74359993 7.24568166 -178.125 6.8125 C-177.42157471 6.62236328 -176.71814941 6.43222656 -175.9934082 6.23632812 C-119.02538551 -8.83784268 -57.94216891 -9.12418477 0 0 Z " fill="#F8F3E5" transform="translate(580.125,48.5)"/>
<path d="M0 0 C186.81876333 0 186.81876333 0 228 29 C228.96164062 29.67675781 229.92328125 30.35351562 230.9140625 31.05078125 C263.55876449 54.79621693 287.25028491 89.84983232 294 130 C295.70664502 140.85243238 296.34558961 151.47784423 296.31567383 162.45361328 C296.31251092 164.86667049 296.33610695 167.27849873 296.36132812 169.69140625 C296.42026702 184.02219741 294.6806603 198.09930879 290.375 211.8125 C289.99649902 213.03598145 289.99649902 213.03598145 289.61035156 214.28417969 C276.69603317 254.59343744 250.61260614 287.27514593 212.97753906 306.984375 C147.67166769 340.52418054 71.06468522 327 0 327 C0 219.09 0 111.18 0 0 Z " fill="#A6A6A6" transform="translate(468,273)"/>
<path d="M0 0 C8.46582205 6.92232963 10.59908074 13.84955569 11.74609375 24.421875 C12.12900164 31.1023856 12.08407892 37.7954364 12.05859375 44.484375 C12.05743561 45.42340668 12.05627747 46.36243835 12.05508423 47.32992554 C12.01031061 65.81751978 10.8204933 84.05769713 8.74609375 102.421875 C8.62862793 103.48083984 8.51116211 104.53980469 8.39013672 105.63085938 C5.7612219 128.6061208 0.93885901 151.16069516 -5.25390625 173.421875 C-5.63419676 174.83070699 -6.01441148 176.23955943 -6.39453125 177.6484375 C-12.43910008 199.54153819 -20.76101407 220.81404584 -30.25390625 241.421875 C-30.69879395 242.38996094 -31.14368164 243.35804688 -31.60205078 244.35546875 C-48.89080321 281.74585057 -70.88102058 316.6232374 -97.85498047 347.79638672 C-99.3449143 349.52762223 -100.81807341 351.27217734 -102.2890625 353.01953125 C-107.39231259 359.06332033 -112.55796477 364.88939586 -118.23828125 370.40625 C-120.20906996 372.37703871 -122.01523682 374.42117053 -123.81640625 376.546875 C-126.71080324 379.92144845 -129.84176135 382.77907223 -133.23046875 385.6484375 C-135.28199597 387.44649417 -137.16910166 389.3376176 -139.06640625 391.296875 C-143.31204479 395.59178594 -147.90892716 399.34393994 -152.62451172 403.10888672 C-154.3907077 404.53211147 -156.13755489 405.97696583 -157.8828125 407.42578125 C-223.47701186 461.69466103 -304.13315962 496.44143176 -388.25390625 508.421875 C-390.367212 508.73290652 -392.48049471 509.04409458 -394.59375 509.35546875 C-396.5010256 509.62953521 -398.40856112 509.90180167 -400.31640625 510.171875 C-401.53577881 510.34553589 -401.53577881 510.34553589 -402.77978516 510.52270508 C-417.03945212 512.44278106 -431.22275269 512.58013161 -445.5859375 512.55224609 C-448.87895283 512.54687492 -452.17183249 512.55222524 -455.46484375 512.55859375 C-457.59505238 512.55793303 -459.72526092 512.55665201 -461.85546875 512.5546875 C-462.82142975 512.55671173 -463.78739075 512.55873596 -464.78262329 512.56082153 C-488.41326591 512.48114909 -488.41326591 512.48114909 -497.06640625 504.81640625 C-498.63888231 503.09847616 -499.95341105 501.35229756 -501.25390625 499.421875 C-501.87265625 498.58076172 -501.87265625 498.58076172 -502.50390625 497.72265625 C-509.02332324 487.2870617 -504.78959051 469.93388888 -503.44140625 458.296875 C-503.25498905 456.65715161 -503.06862887 455.01742173 -502.88232422 453.37768555 C-502.51554594 450.17172085 -502.14158551 446.96670375 -501.76220703 443.76220703 C-501.32679059 440.07707271 -500.92590207 436.38895713 -500.53125 432.69921875 C-499.15695245 420.67025484 -496.9067699 411.6785155 -487.16015625 403.67578125 C-481.8090002 400.15586098 -477.44470143 398.9805992 -471.0859375 398.98046875 C-470.30228821 398.96816727 -469.51863892 398.95586578 -468.71124268 398.94319153 C-467.03398394 398.91753227 -465.35662468 398.89786063 -463.67922974 398.88366699 C-459.25032593 398.8424905 -454.82260613 398.74507698 -450.39453125 398.65234375 C-449.51495255 398.63479034 -448.63537384 398.61723694 -447.72914124 398.59915161 C-415.84999308 397.92981138 -384.87950735 393.26131864 -354.25390625 384.421875 C-353.08069824 384.08953857 -353.08069824 384.08953857 -351.88378906 383.75048828 C-347.29428525 382.43995578 -342.76110828 380.99336417 -338.25390625 379.421875 C-337.51172852 379.16390137 -336.76955078 378.90592773 -336.00488281 378.64013672 C-293.29377151 363.56000279 -254.6787672 340.64434598 -220.75292969 310.74169922 C-219.42943269 309.57641831 -218.0962885 308.42211421 -216.76171875 307.26953125 C-204.63614972 296.63414158 -193.14540462 285.16772589 -183.25390625 272.421875 C-182.34159448 271.30738982 -181.42601411 270.19557519 -180.5078125 269.0859375 C-169.16817101 255.31023464 -159.18143763 240.59086169 -150.25830078 225.14550781 C-149.29606471 223.49422276 -148.30488592 221.85990593 -147.3125 220.2265625 C-131.45966111 193.64503467 -121.56247449 164.07097677 -113.25390625 134.421875 C-112.98288086 133.46643799 -112.71185547 132.51100098 -112.43261719 131.52661133 C-104.6326739 103.61423606 -102.75180207 75.35735059 -102.96899414 46.50732422 C-103.12579892 19.54771642 -103.12579892 19.54771642 -94.66577148 9.54394531 C-86.75798555 1.82551873 -75.60496369 0.57465425 -65.12890625 -0.640625 C-63.803976 -0.80321023 -62.4791887 -0.96696432 -61.15454102 -1.13183594 C-58.47599329 -1.46361593 -55.79671548 -1.78822231 -53.11669922 -2.10791016 C-49.54473244 -2.54272295 -45.979444 -3.01059723 -42.4140625 -3.49609375 C-11.04911455 -7.73629511 -11.04911455 -7.73629511 0 0 Z " fill="#000000" transform="translate(951.25390625,430.578125)"/>
<path d="M0 0 C0.33 0 0.66 0 1 0 C1 155.76 1 311.52 1 472 C-155.42 472 -311.84 472 -473 472 C-473 471.67 -473 471.34 -473 471 C-472.3601416 470.96559814 -471.7202832 470.93119629 -471.06103516 470.89575195 C-440.98854131 469.18738851 -411.39637309 464.51330556 -382 458 C-380.55633057 457.68240723 -380.55633057 457.68240723 -379.08349609 457.35839844 C-302.83191988 440.13457721 -226.80458907 400.09602052 -169.40625 347.1953125 C-167.37865066 345.34545726 -165.32574746 343.53794688 -163.25390625 341.73828125 C-158.89716274 337.93488783 -154.65436275 334.0198635 -150.4375 330.0625 C-149.72142578 329.39798828 -149.00535156 328.73347656 -148.26757812 328.04882812 C-144.09268706 324.13225607 -140.22527618 320.08317717 -136.50317383 315.73461914 C-134.80568599 313.77576725 -133.00476292 311.97118615 -131.125 310.1875 C-127.25323584 306.36765605 -123.86374347 302.26479954 -120.46484375 298.0234375 C-118.75646841 295.92790262 -117.03786122 293.87954612 -115.25390625 291.8515625 C-101.31800534 276.0076307 -89.4688942 258.68065943 -78 241 C-77.47083984 240.1946582 -76.94167969 239.38931641 -76.39648438 238.55957031 C-52.33802467 201.81274488 -34.25510079 160.63965137 -21.5625 118.6875 C-21.35898926 118.01592865 -21.15547852 117.3443573 -20.94580078 116.6524353 C-18.19322892 107.51459891 -15.73363556 98.32253698 -13.49505615 89.04580688 C-12.99317295 86.97178739 -12.48136243 84.90036915 -11.96923828 82.82885742 C-9.51395992 72.78427938 -7.57734757 62.70766249 -5.9375 52.5 C-5.8102655 51.71960358 -5.68303101 50.93920715 -5.55194092 50.13516235 C-2.85800579 33.4927936 -1.24005289 16.80792556 0 0 Z " fill="#FEFEFE" transform="translate(999,528)"/>
<path d="M0 0 C0.33 0 0.66 0 1 0 C1.05945801 0.8664917 1.11891602 1.7329834 1.18017578 2.62573242 C4.32349309 46.84346594 11.86273774 89.88990468 26 132 C26.53729736 133.60367432 26.53729736 133.60367432 27.08544922 135.23974609 C46.83437922 193.4923108 77.28635399 248.13038529 117.34375 294.87109375 C119.81373102 297.76015296 122.19001824 300.71772089 124.5625 303.6875 C128.25618275 308.23357108 132.22419486 312.36029505 136.4453125 316.41796875 C138.4997759 318.49442182 140.39216502 320.59338867 142.2890625 322.80859375 C146.02407002 327.11740402 150.06964285 331.00287414 154.25 334.875 C155.36979248 335.91926147 155.36979248 335.91926147 156.51220703 336.98461914 C158.67071563 338.99420882 160.8346403 340.99779812 163 343 C163.55333008 343.51449707 164.10666016 344.02899414 164.67675781 344.55908203 C171.23338143 350.65291048 177.99108992 356.43434235 185 362 C185.63260742 362.50515137 186.26521484 363.01030273 186.91699219 363.53076172 C210.87170428 382.60998535 236.23739452 399.1466741 263 414 C263.72364746 414.4031543 264.44729492 414.80630859 265.19287109 415.22167969 C313.96642948 442.22728931 368.91084484 459.86717212 424 468 C425.38324463 468.20616943 425.38324463 468.20616943 426.79443359 468.41650391 C441.81070232 470.61180449 456.86549044 471.93359623 472 473 C472 473.33 472 473.66 472 474 C316.24 474 160.48 474 0 474 C0 317.58 0 161.16 0 0 Z " fill="#FEFEFE" transform="translate(0,526)"/>
<path d="M0 0 C155.76 0 311.52 0 472 0 C472 0.33 472 0.66 472 1 C470.46520996 1.13462646 470.46520996 1.13462646 468.89941406 1.27197266 C432.05667409 4.54692494 396.64204025 10.02808927 361 20 C359.92508301 20.29487305 358.85016602 20.58974609 357.74267578 20.89355469 C334.97087535 27.18709834 312.56561478 35.9811304 291.16943359 45.98730469 C288.78194758 47.10178724 286.38502063 48.19463188 283.98828125 49.2890625 C237.74185119 70.62399064 190.93928562 101.60507153 155.4765625 138.55078125 C153.43669374 140.56812779 151.36635644 142.4276698 149.19140625 144.29296875 C144.96353112 147.96057651 141.12200773 151.90422044 137.3125 156 C136.62260986 156.73839111 135.93271973 157.47678223 135.22192383 158.23754883 C125.08503879 169.14710144 115.42280468 180.39092176 106.36816406 192.21533203 C105.45475056 193.40681182 104.53741184 194.59529252 103.61621094 195.78076172 C90.5339427 212.62225019 78.55762856 230.46721925 68 249 C67.60119629 249.69754395 67.20239258 250.39508789 66.79150391 251.11376953 C61.21682799 260.90422723 55.91986691 270.80639572 51.00195312 280.94287109 C49.97687459 283.04747922 48.93391149 285.14264866 47.890625 287.23828125 C19.0880123 345.79049482 4.91995351 410.16938684 1 475 C0.67 475 0.34 475 0 475 C0 318.25 0 161.5 0 0 Z " fill="#FEFEFE" transform="translate(0,0)"/>
<path d="M0 0 C155.1 0 310.2 0 470 0 C470 156.42 470 312.84 470 474 C469.67 474 469.34 474 469 474 C468.90295776 472.66884155 468.90295776 472.66884155 468.80395508 471.31079102 C462.32668009 384.61538427 437.33758904 301.31921705 385.75 222.875 C385.37958588 222.31672516 385.00917175 221.75845032 384.62753296 221.18325806 C379.343409 213.24465635 373.79537595 205.57126567 368 198 C367.48969238 197.3311377 366.97938477 196.66227539 366.45361328 195.97314453 C357.07123609 183.75205033 347.06094227 172.11289216 336.59375 160.8125 C334.13780417 158.14942621 331.72125407 155.45572374 329.3125 152.75 C323.64783287 146.4503257 317.74676921 140.55825473 311.3203125 135.0390625 C308.95969333 132.96457899 306.66073833 130.83546646 304.36450195 128.69042969 C298.11126054 122.85322137 291.68574166 117.34142363 285 112 C283.88175519 111.07940781 282.76462456 110.15746106 281.6484375 109.234375 C272.57184323 101.78023276 263.07624567 95.10700267 253.32006836 88.57543945 C250.90291902 86.93407729 248.52207226 85.24735856 246.140625 83.5546875 C228.17429613 70.9479234 208.58475459 60.809386 189 51 C188.11489746 50.54818359 187.22979492 50.09636719 186.31787109 49.63085938 C169.45182 41.03105576 151.76196485 34.47928822 134 28 C132.89188965 27.59475098 131.7837793 27.18950195 130.64208984 26.77197266 C88.8203783 11.67473155 44.18773474 4.40988754 0 1 C0 0.67 0 0.34 0 0 Z " fill="#FEFEFE" transform="translate(530,0)"/>
<path d="M0 0 C0.70243835 0.1018158 1.40487671 0.20363159 2.12860107 0.30853271 C72.47820788 10.58345271 140.51028956 33.17546852 201 71 C201.98637451 71.60932373 201.98637451 71.60932373 202.99267578 72.23095703 C233.11179599 90.87008618 260.36556387 113.48376413 286.1875 137.625 C287.18595947 138.55759644 287.18595947 138.55759644 288.20458984 139.5090332 C299.56272466 150.16805377 299.56272466 150.16805377 304.3125 155.75 C307.10745842 158.99515307 309.97465906 162.16112492 312.875 165.3125 C317.79513443 170.71500055 322.44257746 176.28986254 327 182 C327.6199585 182.77053711 327.6199585 182.77053711 328.25244141 183.55664062 C344.11024984 203.28497094 358.30211297 224.10862096 371 246 C371.37415039 246.64388672 371.74830078 247.28777344 372.13378906 247.95117188 C407.43285329 309.12030262 429.0974336 376.68660554 436 447 C436.08720306 447.86428619 436.17440613 448.72857239 436.26425171 449.61904907 C437.84555509 465.57555319 438.36574359 481.40762067 438.3125 497.4375 C438.31034485 498.61520966 438.3081897 499.79291931 438.30596924 501.00631714 C438.24996416 520.16733911 437.63357741 538.99980546 435 558 C434.90054077 558.72133118 434.80108154 559.44266235 434.6986084 560.18585205 C430.1900619 592.51795074 423.40444593 624.00869476 413 655 C412.64180176 656.06911621 412.28360352 657.13823242 411.91455078 658.23974609 C392.77131859 714.70571017 363.59198075 768.41622167 325 814 C324.13096145 815.04251137 323.26250152 816.08550528 322.39453125 817.12890625 C316.6492227 824.00977258 310.73313959 830.71226116 304.61621094 837.26611328 C303.44756321 838.51984986 302.28192449 839.77639352 301.11816406 841.03466797 C286.90771227 856.39778352 286.90771227 856.39778352 279.47265625 862.83984375 C277.60803187 864.4688126 275.79486866 866.11734296 273.99609375 867.81640625 C266.89393886 874.52032969 259.52809178 880.65768894 251.78710938 886.60693359 C249.99827919 888.00134139 248.23826105 889.42523095 246.484375 890.86328125 C230.5862775 903.88383612 213.57255402 915.36624176 196 926 C195.22205078 926.47083008 194.44410156 926.94166016 193.64257812 927.42675781 C131.92181093 964.42371728 62.47044409 987.16780168 -9 995 C-9.88333008 995.10296387 -10.76666016 995.20592773 -11.67675781 995.31201172 C-28.78101258 997.22153434 -45.93648686 997.20965482 -63.125 997.25 C-64.83345093 997.25790054 -64.83345093 997.25790054 -66.57641602 997.26596069 C-82.81435444 997.32391996 -98.83919277 996.57953534 -115 995 C-115.74308411 994.92910156 -116.48616821 994.85820313 -117.25177002 994.78515625 C-147.99250144 991.80739507 -178.52408743 985.15840767 -208 976 C-209.1545166 975.64212402 -210.3090332 975.28424805 -211.49853516 974.91552734 C-247.84838403 963.51004429 -282.70055304 948.37632014 -315.31494141 928.62402344 C-317.79873249 927.12173409 -320.29336611 925.63983879 -322.79296875 924.1640625 C-344.10086096 911.49176501 -364.23955822 896.72559081 -383.015625 880.546875 C-385.84081541 878.13584863 -388.72022259 875.81397523 -391.625 873.5 C-396.55931298 869.4922174 -400.99396462 865.10467056 -405.43359375 860.5703125 C-408.23363045 857.76601394 -411.16178701 855.18307061 -414.16796875 852.60546875 C-419.16432938 848.22699493 -423.5979499 843.38353348 -427.92578125 838.35546875 C-430.01401661 835.98408283 -432.15445761 833.6717623 -434.3112793 831.36303711 C-440.14696018 825.11006632 -445.6925086 818.71266456 -451 812 C-451.73742432 811.07936768 -451.73742432 811.07936768 -452.48974609 810.14013672 C-473.03014007 784.47240354 -490.72157256 757.08952076 -506 728 C-506.48823242 727.07944824 -506.97646484 726.15889648 -507.47949219 725.21044922 C-522.02019643 697.64829032 -532.65973379 668.66478291 -542 639 C-542.31018066 638.03126953 -542.62036133 637.06253906 -542.93994141 636.06445312 C-562.11345018 575.71134839 -567.07604951 507.73059024 -560 445 C-559.87641113 443.82872559 -559.75282227 442.65745117 -559.62548828 441.45068359 C-553.52214597 384.61192119 -538.02011518 326.80537092 -511.12988281 276.15380859 C-509.76399133 273.55011486 -508.44149954 270.92586391 -507.1171875 268.30078125 C-496.80996537 247.99172444 -485.31645558 228.48725376 -472 210 C-471.1642041 208.83960205 -471.1642041 208.83960205 -470.31152344 207.65576172 C-463.47679172 198.2062132 -456.53994125 188.90113419 -449 180 C-448.10765282 178.93394525 -447.21574952 177.86751885 -446.32421875 176.80078125 C-440.68619322 170.073614 -434.93599631 163.46716081 -429 157 C-428.50161621 156.45118164 -428.00323242 155.90236328 -427.48974609 155.33691406 C-419.29076869 146.31730402 -410.76495366 137.8114441 -401.75341797 129.60498047 C-400.11532001 128.10555747 -398.4941719 126.59034946 -396.87890625 125.06640625 C-390.71817892 119.27887195 -384.31545919 113.96995708 -377.625 108.8125 C-375.18082978 106.92790223 -372.76738066 105.01241886 -370.375 103.0625 C-316.71174486 59.33026931 -251.33786994 27.65977955 -184.03686523 11.75195312 C-180.60975732 10.90337266 -177.21489053 9.9582864 -173.8125 9.015625 C-165.79776541 6.86808779 -157.74807059 5.33566979 -149.5625 4 C-148.40793304 3.81156525 -148.40793304 3.81156525 -147.2300415 3.61932373 C-98.9023139 -4.17673897 -48.60873466 -7.07821281 0 0 Z M-121 5 C-122.22219238 5.1551709 -123.44438477 5.3103418 -124.70361328 5.47021484 C-138.53814906 7.24313184 -152.22491776 9.39138617 -165.82177734 12.50878906 C-168.02906454 13.00655434 -170.24113362 13.47189341 -172.45703125 13.9296875 C-183.09243603 16.15432822 -193.42982283 19.08077034 -203.79931641 22.31689453 C-205.6785755 22.9002279 -207.56337881 23.46564963 -209.44921875 24.02734375 C-261.2048808 39.46789338 -310.78706402 64.68192143 -354 97 C-355.12825605 97.83161203 -356.25711923 98.66240126 -357.38671875 99.4921875 C-364.09750252 104.45868304 -370.59209813 109.64979857 -377 115 C-377.75966064 115.63010986 -377.75966064 115.63010986 -378.53466797 116.27294922 C-389.84886105 125.66487865 -400.70207014 135.49882153 -411 146 C-413.7577709 148.76718309 -416.52696144 151.52241265 -419.3046875 154.26953125 C-425.42802412 160.33669827 -431.45964429 166.38892386 -437 173 C-437.76957031 173.88042969 -438.53914063 174.76085937 -439.33203125 175.66796875 C-447.76508067 185.36581748 -455.38686199 195.65388481 -463 206 C-463.70189453 206.94528564 -463.70189453 206.94528564 -464.41796875 207.90966797 C-478.24825177 226.55395334 -490.03979567 246.56358361 -501 267 C-501.51272461 267.95535645 -502.02544922 268.91071289 -502.55371094 269.89501953 C-528.33645715 318.46622425 -544.85053146 372.07147951 -552.62988281 426.42333984 C-552.95360442 428.67700599 -553.29640075 430.9264108 -553.6484375 433.17578125 C-554.83024609 441.14870731 -555.35623973 449.07910995 -555.65893555 457.1262207 C-555.69027588 457.93148193 -555.72161621 458.73674316 -555.75390625 459.56640625 C-555.77783447 460.27740479 -555.8017627 460.98840332 -555.82641602 461.72094727 C-556 464 -556 464 -556.50268555 466.7355957 C-557.11213305 470.73604862 -557.18063793 474.62348251 -557.203125 478.6640625 C-557.21022995 479.51198364 -557.2173349 480.35990479 -557.22465515 481.23352051 C-557.53296546 529.39414804 -554.39127005 577.49618677 -541 624 C-540.67805664 625.14227051 -540.35611328 626.28454102 -540.02441406 627.46142578 C-526.40195404 675.54629748 -506.68725077 721.87657694 -479.40380859 763.83935547 C-478.12006393 765.81520595 -476.84997519 767.79915008 -475.58203125 769.78515625 C-456.76377344 798.93631971 -433.65918871 825.52958812 -409.16333008 850.02197266 C-407.42955057 851.75795956 -405.70398462 853.5018511 -403.97851562 855.24609375 C-398.03190477 861.22186009 -392.02139878 866.85461489 -385.39160156 872.07592773 C-382.92819465 874.05776827 -380.61934688 876.15151932 -378.3125 878.3125 C-372.27449337 883.79900366 -365.75507812 888.59130902 -359.17822266 893.40429688 C-356.99158403 895.0061653 -354.81408217 896.6199302 -352.63671875 898.234375 C-287.68074585 946.09667082 -210.46045226 976.46793732 -130.72216797 987.61816406 C-128.44898255 987.93702164 -126.17954181 988.27269094 -123.91015625 988.6171875 C-87.54849817 993.7496691 -50.50982074 992.76087505 -14 990 C-12.83758789 989.91411621 -11.67517578 989.82823242 -10.47753906 989.73974609 C10.98763126 988.04411898 32.00016204 983.59504168 53 979 C54.12889648 978.75411133 55.25779297 978.50822266 56.42089844 978.25488281 C116.39525984 964.81339277 176.83873492 936.71234478 226 900 C226.80228027 899.4013916 227.60456055 898.8027832 228.43115234 898.18603516 C238.07901659 890.96216784 247.66624719 883.69611643 256.76904297 875.79101562 C258.86150703 873.975362 260.9699649 872.18246329 263.09863281 870.40942383 C271.75595432 863.16391243 279.85103516 855.46030994 287.80639648 847.4543457 C289.82117835 845.42877518 291.84653275 843.41421616 293.87304688 841.40039062 C300.32841765 834.95118163 306.52899153 828.48703502 312.16235352 821.296875 C314.04808295 818.9399011 316.04864764 816.75215486 318.125 814.5625 C324.72213223 807.31949468 330.39071249 799.32097041 336.19580078 791.44189453 C337.80529083 789.26352924 339.42807848 787.09623464 341.05859375 784.93359375 C347.06092497 776.93466463 352.51725242 768.70372334 357.69335938 760.1484375 C359.03476438 757.94283883 360.39881786 755.752433 361.765625 753.5625 C379.65570974 724.64196064 393.46852611 693.9486269 405 662 C405.35336426 661.03030273 405.70672852 660.06060547 406.07080078 659.06152344 C413.80098258 637.77944472 419.61883845 616.21058422 424 594 C424.21543457 592.90864746 424.43086914 591.81729492 424.65283203 590.69287109 C428.42124458 571.20748846 430.56723171 551.76952431 432 532 C432.07202637 531.01676758 432.14405273 530.03353516 432.21826172 529.02050781 C432.61408156 523.34884001 432.86560711 517.68369947 433 512 C433.02191406 511.11650879 433.04382813 510.23301758 433.06640625 509.32275391 C433.37699722 494.29791579 432.80921213 479.31860166 432.125 464.3125 C432.08579437 463.41625916 432.04658875 462.52001831 432.00619507 461.59661865 C431.51683505 450.61991259 430.65201592 439.8708405 429 429 C428.73684222 427.09897729 428.4738128 425.1979368 428.2109375 423.296875 C424.02526228 394.87606384 417.05963521 367.23910255 408 340 C407.44398125 338.28256153 406.88798914 336.56511443 406.33203125 334.84765625 C388.11692304 279.74582674 358.45374755 227.2514028 321 183 C320.14261334 181.96926194 319.28587495 180.9379844 318.4296875 179.90625 C308.00090363 167.39255055 296.82368723 155.63687712 285.30883789 144.12353516 C283.43020538 142.24269682 281.55976894 140.35394812 279.68945312 138.46484375 C272.76214302 131.50570894 265.7030884 125.09924779 258 119 C256.83557168 118.00559138 255.67811823 117.00289206 254.53125 115.98828125 C232.55578524 96.55419677 207.62323829 80.19010033 182 66 C180.64817627 65.24106445 180.64817627 65.24106445 179.26904297 64.46679688 C138.77189464 41.75914702 95.6917066 24.95694676 50.4375 14.5 C49.79102509 14.35003571 49.14455017 14.20007141 48.47848511 14.04556274 C40.19936432 12.12885842 31.90835139 10.29207659 23.5625 8.6875 C22.80316162 8.54054688 22.04382324 8.39359375 21.26147461 8.2421875 C-24.86520126 -0.29775725 -74.56238107 -1.13812126 -121 5 Z " fill="#0B0B0B" transform="translate(562,3)"/>
<path d="M0 0 C186.81876333 0 186.81876333 0 228 29 C228.96164062 29.67675781 229.92328125 30.35351562 230.9140625 31.05078125 C263.55876449 54.79621693 287.25028491 89.84983232 294 130 C295.70664502 140.85243238 296.34558961 151.47784423 296.31567383 162.45361328 C296.31251092 164.86667049 296.33610695 167.27849873 296.36132812 169.69140625 C296.42026702 184.02219741 294.6806603 198.09930879 290.375 211.8125 C289.99649902 213.03598145 289.99649902 213.03598145 289.61035156 214.28417969 C276.69603317 254.59343744 250.61260614 287.27514593 212.97753906 306.984375 C147.67166769 340.52418054 71.06468522 327 0 327 C0 219.09 0 111.18 0 0 Z M9 9 C9 111.3 9 213.6 9 319 C78.66745205 322.29788699 78.66745205 322.29788699 158.875 316 C159.91817383 315.7848877 160.96134766 315.56977539 162.03613281 315.34814453 C196.62817394 307.81360093 230.48729172 292.26853473 253 264 C253.82113281 262.97777344 254.64226562 261.95554687 255.48828125 260.90234375 C268.1398604 244.67922267 276.30161495 226.67824998 282 207 C282.33644531 205.87078125 282.67289063 204.7415625 283.01953125 203.578125 C283.80109154 200.7290875 284.44039437 197.90049114 285 195 C285.20367188 193.948125 285.40734375 192.89625 285.6171875 191.8125 C290.86181953 158.47675671 286.79748184 123.36271943 272 93 C271.18208984 91.31970703 271.18208984 91.31970703 270.34765625 89.60546875 C263.44470291 76.17313367 254.44002894 64.81851942 244 54 C243.31164062 53.26007813 242.62328125 52.52015625 241.9140625 51.7578125 C216.06110543 24.63858814 176.24655826 12.02054652 140 9 C96.77 9 53.54 9 9 9 Z " fill="#FDE8B4" transform="translate(468,273)"/>
<path d="M0 0 C46.2 0 92.4 0 140 0 C140 2.97 140 5.94 140 9 C96.77 9 53.54 9 9 9 C9 110.97 9 212.94 9 318 C93.27184542 322.76601427 93.27184542 322.76601427 185 308 C185.76828125 307.72172363 186.5365625 307.44344727 187.328125 307.15673828 C225.31459036 293.35230148 255.05779988 267.29483444 272.22729492 230.5324707 C275.29659454 223.67730654 277.62866062 216.59825116 279.87109375 209.4375 C281 206 281 206 282 205 C283.51928038 204.92820036 285.04167482 204.91607993 286.5625 204.9375 C287.38878906 204.94652344 288.21507812 204.95554687 289.06640625 204.96484375 C289.70449219 204.97644531 290.34257813 204.98804688 291 205 C286.33259189 238.47658231 262.37667024 272.04977418 236 292 C234.96488281 292.80050781 233.92976562 293.60101562 232.86328125 294.42578125 C219.02923571 304.89489925 204.14968945 311.94914958 187.75 317.4375 C185.90438477 318.0572168 185.90438477 318.0572168 184.02148438 318.68945312 C126.37651286 337.28956393 54.25679769 327 0 327 C0 219.09 0 111.18 0 0 Z " fill="#FDE8B4" transform="translate(318,404)"/>
<path d="M0 0 C7.82378071 0.41913111 14.87940802 2.58077808 22.25585938 5.07470703 C24.23861369 5.74326921 26.22474097 6.4018565 28.21289062 7.05419922 C73.50545564 21.98215638 115.49073959 44.46194229 153 74 C153.66966797 74.5269043 154.33933594 75.05380859 155.02929688 75.59667969 C164.03363292 82.71982816 172.6203184 90.15470786 181 98 C182.57881243 99.44514852 184.16244197 100.88488994 185.74633789 102.32446289 C192.57546437 108.54040513 199.10670272 114.85179005 205.1328125 121.85546875 C207.13153645 124.15107429 209.18945229 126.384796 211.25 128.625 C256.66798931 179.09794259 310.5935783 267.21056862 308 338 C307 339 307 339 303.4375 339.0625 C302.303125 339.041875 301.16875 339.02125 300 339 C299.79431396 338.00484375 299.58862793 337.0096875 299.37670898 335.984375 C292.10310909 300.93947621 282.6574694 267.74512965 268 235 C267.67032227 234.25943359 267.34064453 233.51886719 267.00097656 232.75585938 C253.67762764 203.02517822 236.19241818 175.50797197 216 150 C215.26265625 149.06800781 214.5253125 148.13601562 213.765625 147.17578125 C208.91803894 141.15067872 203.80566121 135.4286499 198.546875 129.765625 C196.52140015 127.56618299 194.55905519 125.34123829 192.625 123.0625 C185.78264432 115.18142526 178.22769239 107.6776527 170.26953125 100.92578125 C168.37346671 99.31690033 166.50205317 97.68710513 164.63671875 96.04296875 C156.66108355 89.03001764 148.56224861 82.28887349 140 76 C139.06945801 75.31454102 139.06945801 75.31454102 138.12011719 74.61523438 C104.79930732 50.22288322 68.39294378 31.52388421 29.36669922 18.16577148 C24.64697029 16.53149261 19.95524103 14.82140253 15.26367188 13.1081543 C10.25607386 11.4078635 5.15576359 10.16146323 0 9 C-0.97591583 5.61682513 -0.85856655 3.4342662 0 0 Z " fill="#FCFCFC" transform="translate(611,88)"/>
<path d="M0 0 C1.32763672 2.07519531 1.32763672 2.07519531 2.6796875 4.828125 C3.18959229 5.84519531 3.69949707 6.86226562 4.22485352 7.91015625 C4.76940186 9.01230469 5.3139502 10.11445312 5.875 11.25 C20.45953592 39.9960936 39.03294517 65.62579876 60 90 C60.99 91.16015625 60.99 91.16015625 62 92.34375 C65.31056 96.18636429 68.76484131 99.80196199 72.38671875 103.3515625 C74 105 74 105 76.4375 108 C79.04076726 111.04772752 81.79624758 113.50136477 84.83984375 116.08984375 C87.10651996 118.09419215 89.20363264 120.2057715 91.3125 122.375 C95.28709772 126.39015484 99.47136495 129.97841423 103.8828125 133.50390625 C106.12918123 135.30269024 108.34858513 137.11816255 110.5546875 138.96484375 C166.92565727 185.93824226 236.17870535 213.674006 308 226 C307.67 228.97 307.34 231.94 307 235 C230.86448607 226.76701446 157.19790858 191.03030554 99 142 C98.17653076 141.31188232 98.17653076 141.31188232 97.33642578 140.60986328 C89.51274162 134.06386768 82.10205573 127.33074446 75 120 C72.20298721 117.18418376 69.38275637 114.39372307 66.546875 111.6171875 C59.20983513 104.40616733 52.33768424 97.11980986 46 89 C45.08441743 87.87175731 44.16629431 86.74557316 43.24609375 85.62109375 C-9 21.57582436 -9 21.57582436 -9 2 C-3.375 -1.125 -3.375 -1.125 0 0 Z " fill="#FCFCFC" transform="translate(139,671)"/>
<path d="M0 0 C6.72050652 0.56202116 12.59730948 2.3090109 18.9375 4.5625 C19.95094482 4.92182617 20.96438965 5.28115234 22.00854492 5.65136719 C63.80959047 20.76296152 95.11089383 49.95739196 113.97265625 90.1171875 C125.41206615 115.6760625 128.59850686 143.25045826 127 171 C126 172 126 172 124.15234375 172.09765625 C122.1015625 172.06510417 120.05078125 172.03255208 118 172 C117.9906543 171.41959961 117.98130859 170.83919922 117.97167969 170.24121094 C117.06435755 124.57266337 106.78811715 85.57316304 76 51 C75.35675781 50.27167969 74.71351563 49.54335938 74.05078125 48.79296875 C54.54021349 28.01273281 26.77491935 16.77818886 0 9 C0 6.03 0 3.06 0 0 Z " fill="#FCE8B4" transform="translate(487,409)"/>
<path d="M0 0 C3.78650575 1.7577724 6.94661494 3.37369863 8.87890625 7.23828125 C8.87890625 8.55828125 8.87890625 9.87828125 8.87890625 11.23828125 C14.15890625 9.25828125 19.43890625 7.27828125 24.87890625 5.23828125 C23.87890625 11.23828125 23.87890625 11.23828125 22.27734375 12.62890625 C21.60960937 12.9125 20.941875 13.19609375 20.25390625 13.48828125 C19.53976563 13.79765625 18.825625 14.10703125 18.08984375 14.42578125 C15.04612704 15.54432025 12.02547203 16.4516398 8.87890625 17.23828125 C8.81832031 17.8415625 8.75773437 18.44484375 8.6953125 19.06640625 C8.61152344 19.865625 8.52773437 20.66484375 8.44140625 21.48828125 C8.36019531 22.2771875 8.27898437 23.06609375 8.1953125 23.87890625 C7.90255632 26.06192764 7.45826206 28.11559945 6.87890625 30.23828125 C7.58917969 30.37105469 8.29945312 30.50382812 9.03125 30.640625 C9.95035156 30.81722656 10.86945313 30.99382812 11.81640625 31.17578125 C12.73292969 31.34980469 13.64945313 31.52382813 14.59375 31.703125 C16.87890625 32.23828125 16.87890625 32.23828125 17.87890625 33.23828125 C17.91954457 34.9044524 17.92162725 36.5721622 17.87890625 38.23828125 C10.70900831 37.52569017 3.82326459 35.95061746 -3.18359375 34.30078125 C-4.32892578 34.03587891 -5.47425781 33.77097656 -6.65429688 33.49804688 C-12.18713471 32.20843806 -17.67971587 30.87306386 -23.12109375 29.23828125 C-22.64928156 26.83404681 -22.17060623 24.43167333 -21.6796875 22.03125 C-21.33530298 20.30932739 -21.01065498 18.58315415 -20.71875 16.8515625 C-19.49216776 10.15792798 -17.02590291 4.68443633 -11.74609375 0.23828125 C-7.61555908 -1.33525577 -4.20466209 -1.50996152 0 0 Z " fill="#D1AC3B" transform="translate(115.12109375,381.76171875)"/>
<path d="M0 0 C2.64016854 1.71917951 4.11452716 3.04099123 5.6875 5.75 C5.6875 6.41 5.6875 7.07 5.6875 7.75 C6.53054688 7.1725 7.37359375 6.595 8.2421875 6 C9.34879435 5.24975807 10.45557419 4.49977126 11.5625 3.75 C12.65304687 3.0075 13.74359375 2.265 14.8671875 1.5 C17.6875 -0.25 17.6875 -0.25 19.6875 -0.25 C19.40080918 3.13763239 19.02902464 4.43859218 16.47265625 6.76953125 C15.57417969 7.36121094 14.67570313 7.95289063 13.75 8.5625 C12.40615234 9.46935547 12.40615234 9.46935547 11.03515625 10.39453125 C8.6875 11.75 8.6875 11.75 6.6875 11.75 C6.6875 16.7 6.6875 21.65 6.6875 26.75 C10.6475 26.75 14.6075 26.75 18.6875 26.75 C18.6875 28.07 18.6875 29.39 18.6875 30.75 C5.31109426 30.87242557 -7.96574871 30.67273836 -21.3125 29.75 C-21.26019177 26.39460726 -21.16502053 23.04170443 -21.0625 19.6875 C-21.04832031 18.74455078 -21.03414062 17.80160156 -21.01953125 16.83007812 C-20.80388038 10.64089829 -19.92597595 6.81965282 -16.3125 1.75 C-11.36924837 -2.5066889 -5.78999459 -2.18490362 0 0 Z " fill="#C19C2F" transform="translate(905.3125,478.25)"/>
<path d="M0 0 C3.83019557 1.98602733 7.04532347 4.09064695 9 8 C9 10.64 9 13.28 9 16 C14.28 16 19.56 16 25 16 C24.34 17.32 23.68 18.64 23 20 C20.33583883 20.22400458 17.90507872 20.26275834 15.25 20.1875 C9.53850468 20.22810335 9.53850468 20.22810335 4.64453125 22.94921875 C2.52294283 26.202321 1.22461228 29.32616317 0 33 C0.7425 33.268125 1.485 33.53625 2.25 33.8125 C4.86636554 34.94229421 6.80187111 36.20893202 9 38 C8.67 39.32 8.34 40.64 8 42 C3.94785561 40.55750705 0.68758282 38.58966138 -2.8515625 36.15625 C-3.39227386 35.78649048 -3.93298523 35.41673096 -4.49008179 35.0357666 C-6.20485681 33.86167302 -7.9149792 32.68100421 -9.625 31.5 C-10.78094361 30.70658467 -11.93719084 29.91361152 -13.09375 29.12109375 C-15.21237313 27.66875708 -17.32878498 26.21339491 -19.44384766 24.75585938 C-21.28649988 23.49011393 -23.13994813 22.24003458 -25 21 C-21.14891411 10.15408463 -12.76754247 -2.49401815 0 0 Z " fill="#C29E2F" transform="translate(837,686)"/>
<path d="M0 0 C4.36045847 2.22136563 7.13277421 4.43567029 9 9 C9.55872558 12.8179581 9.40679448 15.95758915 8 19.5625 C3.97162916 24.47207696 -0.74665132 29.24124568 -7 31 C-6.6390625 31.60328125 -6.278125 32.2065625 -5.90625 32.828125 C-5.21015625 34.02695312 -5.21015625 34.02695312 -4.5 35.25 C-4.0359375 36.03890625 -3.571875 36.8278125 -3.09375 37.640625 C-2 40 -2 40 -2 44 C-2.99 44 -3.98 44 -5 44 C-6.72998047 41.99975586 -6.72998047 41.99975586 -8.6171875 39.21484375 C-9.30683594 38.20873047 -9.99648438 37.20261719 -10.70703125 36.16601562 C-11.42246094 35.10060547 -12.13789062 34.03519531 -12.875 32.9375 C-14.2888241 30.86311874 -15.70288121 28.78889628 -17.1171875 26.71484375 C-17.78331055 25.73112793 -18.44943359 24.74741211 -19.13574219 23.73388672 C-21.3740583 20.45145301 -23.67146431 17.21885816 -26 14 C-24.50780028 9.47158835 -20.85826961 7.66387516 -17 5.3125 C-16.03707031 4.70825195 -16.03707031 4.70825195 -15.0546875 4.09179688 C-9.81437532 0.81934251 -6.27261271 -0.8410207 0 0 Z " fill="#040300" transform="translate(733,793)"/>
<path d="M0 0 C0 1.98 0 3.96 0 6 C-1.4562545 6.67119549 -2.91507867 7.33681807 -4.375 8 C-5.18710938 8.37125 -5.99921875 8.7425 -6.8359375 9.125 C-9 10 -9 10 -11 10 C-10.67 17.59 -10.34 25.18 -10 33 C-5.545 34.98 -5.545 34.98 -1 37 C-1 38.98 -1 40.96 -1 43 C-5.84502968 42.35906026 -9.78031997 40.3552836 -14.109375 38.21875 C-14.87679016 37.84520386 -15.64420532 37.47165771 -16.43487549 37.08679199 C-18.04986794 36.29934182 -19.66351274 35.50912241 -21.27587891 34.71630859 C-23.752577 33.49873312 -26.23329391 32.28968285 -28.71484375 31.08203125 C-30.28409456 30.31559617 -31.85311329 29.54868569 -33.421875 28.78125 C-34.16661072 28.41769409 -34.91134644 28.05413818 -35.6786499 27.67956543 C-40.88304686 25.11695314 -40.88304686 25.11695314 -42 24 C-42.04092937 21.66702567 -42.04241723 19.33294775 -42 17 C-36.34195291 14.57436372 -30.68193655 12.15340575 -25.02001953 9.73681641 C-23.09303413 8.9135656 -21.16659922 8.08902503 -19.24072266 7.26318359 C-16.4770144 6.0783308 -13.71137818 4.89808692 -10.9453125 3.71875 C-10.0806839 3.34689575 -9.2160553 2.9750415 -8.32522583 2.59191895 C-7.52454681 2.25156616 -6.7238678 1.91121338 -5.89892578 1.56054688 C-4.83969406 1.10754211 -4.83969406 1.10754211 -3.75906372 0.64538574 C-2 0 -2 0 0 0 Z " fill="#D2AD3D" transform="translate(127,461)"/>
<path d="M0 0 C4.61635797 2.92682215 8.05442461 7.28964383 10.11328125 12.33984375 C11.01681874 18.34315535 10.97852536 23.82673539 7.73828125 29.08984375 C3.93751574 34.04970797 -0.86327141 37.6893133 -5.88671875 41.33984375 C-6.58925781 41.8709375 -7.29179687 42.40203125 -8.015625 42.94921875 C-12.57772999 46.33984375 -12.57772999 46.33984375 -14.88671875 46.33984375 C-16.04077148 45.01733398 -16.04077148 45.01733398 -17.3203125 43.1484375 C-18.03912598 42.1119104 -18.03912598 42.1119104 -18.77246094 41.05444336 C-19.28454102 40.30300049 -19.79662109 39.55155762 -20.32421875 38.77734375 C-21.39980171 37.22440088 -22.47665362 35.67233623 -23.5546875 34.12109375 C-24.10431152 33.32832031 -24.65393555 32.53554687 -25.22021484 31.71875 C-27.80373498 28.03081853 -30.46456831 24.40134007 -33.13671875 20.77734375 C-33.61423584 20.12886475 -34.09175293 19.48038574 -34.58374023 18.81225586 C-35.6833945 17.32046419 -36.78483513 15.82998951 -37.88671875 14.33984375 C-36.53257442 11.16364419 -35.21343669 9.54924189 -32.3671875 7.61328125 C-31.67431641 7.13890625 -30.98144531 6.66453125 -30.26757812 6.17578125 C-29.54376953 5.69367188 -28.81996094 5.2115625 -28.07421875 4.71484375 C-27.36201172 4.225 -26.64980469 3.73515625 -25.91601562 3.23046875 C-17.16490297 -2.69535407 -9.85692068 -4.78375598 0 0 Z M-26.88671875 10.33984375 C-27.87671875 10.99984375 -28.86671875 11.65984375 -29.88671875 12.33984375 C-29.26636296 15.68094299 -28.05515098 17.8010533 -26.05078125 20.52734375 C-25.48101562 21.30851562 -24.91125 22.0896875 -24.32421875 22.89453125 C-23.72609375 23.70148438 -23.12796875 24.5084375 -22.51171875 25.33984375 C-21.92132813 26.14679688 -21.3309375 26.95375 -20.72265625 27.78515625 C-18.13271389 31.32007758 -15.51916674 34.83647371 -12.88671875 38.33984375 C-6.76639391 36.42724224 -0.95967567 32.46835185 2.61328125 27.08984375 C4.79766601 22.66230155 5.00131216 18.15065469 4.11328125 13.33984375 C2.33885503 9.30019257 -0.05726609 6.92423085 -3.63671875 4.40234375 C-13.40447594 1.20903851 -18.84130021 4.51021261 -26.88671875 10.33984375 Z " fill="#D2AC3B" transform="translate(281.88671875,148.66015625)"/>
<path d="M0 0 C2.24365234 -0.37182617 2.24365234 -0.37182617 5 0 C6.66614519 1.99479927 7.8414801 3.71537806 9.1015625 5.94921875 C9.46470551 6.55884964 9.82784851 7.16848053 10.20199585 7.79658508 C11.36054387 9.75048316 12.49282855 11.71822388 13.625 13.6875 C14.39414131 14.99513734 15.16495695 16.30179138 15.9375 17.60742188 C17.36155453 20.01970674 18.77579577 22.43714061 20.17822266 24.86206055 C21.76131794 27.58887959 23.37776846 30.29628077 25 33 C26.32 23.43 27.64 13.86 29 4 C30.98 4 32.96 4 35 4 C35.28578518 11.18150506 34.32604348 18.15700519 33.34594727 25.25610352 C33.06088355 27.32422724 32.78473591 29.39340315 32.50976562 31.46289062 C31.13754931 41.58735206 31.13754931 41.58735206 30 45 C27.67700195 45.22900391 27.67700195 45.22900391 25 45 C23.45776367 43.47802734 23.45776367 43.47802734 22.16796875 41.3359375 C21.68295898 40.54936768 21.19794922 39.76279785 20.69824219 38.95239258 C20.19969727 38.10185303 19.70115234 37.25131348 19.1875 36.375 C18.66704102 35.51865967 18.14658203 34.66231934 17.61035156 33.7800293 C16.05100587 31.19931698 14.52043244 28.60379714 13 26 C12.56059082 25.24960449 12.12118164 24.49920898 11.66845703 23.72607422 C9.40334754 19.84032531 7.19075618 15.92826486 5 12 C4.88406494 12.80743652 4.76812988 13.61487305 4.64868164 14.44677734 C4.12352846 18.09004391 3.59308296 21.73252041 3.0625 25.375 C2.88009766 26.64601563 2.69769531 27.91703125 2.50976562 29.2265625 C2.33251953 30.43828125 2.15527344 31.65 1.97265625 32.8984375 C1.81031494 34.01911621 1.64797363 35.13979492 1.48071289 36.29443359 C1 39 1 39 0 41 C-1.65 41 -3.3 41 -5 41 C-5.26630833 33.07088439 -4.23721101 25.52026162 -3.0625 17.6875 C-2.78889648 15.79547852 -2.78889648 15.79547852 -2.50976562 13.86523438 C-1.03522114 3.80079801 -1.03522114 3.80079801 0 0 Z " fill="#D1AB39" transform="translate(546,71)"/>
<path d="M0 0 C8.63143147 6.88617499 12.57922452 19.39374584 14 30 C13.34 30.1959375 12.68 30.391875 12 30.59375 C6.26755026 32.32542753 0.57254191 34.13284531 -5.1015625 36.046875 C-6.1740625 36.40845703 -7.2465625 36.77003906 -8.3515625 37.14257812 C-10.52217413 37.87690795 -12.69146678 38.61514895 -14.859375 39.35742188 C-15.86742188 39.69837891 -16.87546875 40.03933594 -17.9140625 40.390625 C-18.8210791 40.70032227 -19.7280957 41.01001953 -20.66259766 41.32910156 C-23 42 -23 42 -26 42 C-30.31013282 31.5197068 -34.12048126 21.52495333 -32 10 C-28.81524566 4.42667991 -25.0650423 0.43035307 -19.1875 -2.3125 C-12.21834502 -3.81565107 -6.27495171 -3.7184899 0 0 Z M-25.375 9.625 C-28.68776508 16.50535825 -27.32920485 22.57083675 -25 29.625 C-24.34815126 31.42211077 -23.68666333 33.21590153 -23 35 C-17.07562685 33.91903806 -11.4636947 31.99603383 -5.75 30.125 C-4.63625 29.77308594 -3.5225 29.42117188 -2.375 29.05859375 C-1.31796875 28.71183594 -0.2609375 28.36507812 0.828125 28.0078125 C1.7965332 27.69473145 2.76494141 27.38165039 3.76269531 27.05908203 C4.50100586 26.70958496 5.23931641 26.36008789 6 26 C7.82457503 20.5262749 4.3636144 15.02346848 2 10 C-0.33805247 6.61505836 -3.22568313 4.59603599 -7 3 C-15.08703635 1.85233478 -19.84373403 3.51149551 -25.375 9.625 Z " fill="#D1AC3B" transform="translate(138,604)"/>
<path d="M0 0 C5.09261811 4.05330829 10.31881005 8.97536032 11.43359375 15.6640625 C11.64612929 23.34034613 9.62555766 29.66393346 4.27734375 35.328125 C-1.90282179 40.73412968 -6.14213271 41.93976795 -14.41015625 41.8203125 C-20.680094 41.13985414 -24.08426783 38.3882707 -28.3125 33.9375 C-32.23294421 27.90604737 -32.57649479 22.47658541 -31.9375 15.4375 C-29.90787866 8.67209553 -25.95316941 3.71764029 -20.375 -0.5 C-14.02371265 -2.46312518 -6.08735423 -3.15237987 0 0 Z M-23.75 10.5625 C-27.03216006 14.87619608 -27.58647592 18.08580005 -26.9375 23.4375 C-25.53305747 28.31279412 -23.30946622 31.55306212 -19.125 34.4375 C-15.22886319 36.56201083 -12.40289601 37.15515293 -7.9375 36.4375 C-2.6638207 34.57035931 0.98738544 32.23467872 4.0625 27.4375 C5.92330151 21.85509548 6.00075348 16.38618031 3.4375 11.0625 C-0.7653551 6.4172391 -4.97441128 3.71703667 -11.25 3.125 C-16.94534031 3.60765596 -20.1424387 6.34506444 -23.75 10.5625 Z " fill="#D1AB39" transform="translate(182.9375,250.5625)"/>
<path d="M0 0 C-0.33 1.32 -0.66 2.64 -1 4 C-6.445 5.485 -6.445 5.485 -12 7 C-13.65 14.26 -15.3 21.52 -17 29 C-15.68 29.66 -14.36 30.32 -13 31 C-11.31110128 32.3050581 -9.6396721 33.63360658 -8 35 C-8.33 36.32 -8.66 37.64 -9 39 C-15.20688864 35.10837934 -20.96427124 30.75984952 -26.67285156 26.18383789 C-29.50585939 23.92197615 -32.34312626 21.72363754 -35.34375 19.6875 C-36.3440625 19.006875 -37.344375 18.32625 -38.375 17.625 C-39.26960937 17.03976562 -40.16421875 16.45453125 -41.0859375 15.8515625 C-43 14 -43 14 -43.2890625 11.2734375 C-43.19367187 10.52320313 -43.09828125 9.77296875 -43 9 C-38.69775765 7.0632754 -34.3160858 6.14471912 -29.70703125 5.2734375 C-28.52617195 5.04462387 -28.52617195 5.04462387 -27.32145691 4.81118774 C-25.66535542 4.49126033 -24.00879355 4.17370794 -22.35180664 3.85839844 C-19.80965646 3.37445869 -17.26901065 2.88317246 -14.72851562 2.390625 C-13.11726992 2.08030093 -11.50594446 1.77039057 -9.89453125 1.4609375 C-9.13308304 1.31409515 -8.37163483 1.16725281 -7.58711243 1.01596069 C-2.23366923 0 -2.23366923 0 0 0 Z " fill="#BF9B2E" transform="translate(918,556)"/>
<path d="M0 0 C0.33 1.32 0.66 2.64 1 4 C-1.55886504 5.32002556 -4.12167068 6.63113782 -6.6875 7.9375 C-7.40873047 8.31068359 -8.12996094 8.68386719 -8.87304688 9.06835938 C-12.56505742 10.93965239 -15.83693096 12.48269556 -20 13 C-19.6390625 13.69867188 -19.278125 14.39734375 -18.90625 15.1171875 C-18.4421875 16.02726562 -17.978125 16.93734375 -17.5 17.875 C-17.0359375 18.77992187 -16.571875 19.68484375 -16.09375 20.6171875 C-15 23 -15 23 -15 25 C-14.50072998 24.75765625 -14.00145996 24.5153125 -13.48706055 24.265625 C-11.22340916 23.17103128 -8.95555436 22.08543911 -6.6875 21 C-5.90181641 20.6184375 -5.11613281 20.236875 -4.30664062 19.84375 C-3.54931641 19.4828125 -2.79199219 19.121875 -2.01171875 18.75 C-0.96697388 18.24726562 -0.96697388 18.24726562 0.09887695 17.734375 C2 17 2 17 5 17 C5.495 19.475 5.495 19.475 6 22 C3.37690901 23.17112946 0.75171858 24.33705964 -1.875 25.5 C-2.62136719 25.83386719 -3.36773437 26.16773437 -4.13671875 26.51171875 C-4.85214844 26.82753906 -5.56757813 27.14335937 -6.3046875 27.46875 C-6.96452637 27.76201172 -7.62436523 28.05527344 -8.30419922 28.35742188 C-10 29 -10 29 -12 29 C-10.35 32.96 -8.7 36.92 -7 41 C3.89 36.545 3.89 36.545 15 32 C15.66 33.65 16.32 35.3 17 37 C16.03320312 37.44730469 15.06640625 37.89460938 14.0703125 38.35546875 C12.75508048 38.96587043 11.43998568 39.57656781 10.125 40.1875 C9.1035791 40.66135132 9.1035791 40.66135132 8.06152344 41.14477539 C3.29634203 43.36601557 -1.39869632 45.69386829 -6.046875 48.15234375 C-8 49 -8 49 -11 49 C-12.80219548 45.03732045 -14.59839835 41.07199301 -16.3894043 37.10424805 C-16.99784169 35.75847659 -17.60783185 34.41340592 -18.21948242 33.0690918 C-21.51765012 25.81743772 -24.677804 18.63725833 -27 11 C-26.01 10.54109375 -25.02 10.0821875 -24 9.609375 C-22.666615 8.98969449 -21.33328523 8.36989514 -20 7.75 C-19.31317139 7.431521 -18.62634277 7.11304199 -17.91870117 6.78491211 C-14.33951055 5.11835015 -10.80527187 3.40535297 -7.3125 1.5625 C-4 0 -4 0 0 0 Z " fill="#D1AC3B" transform="translate(349,101)"/>
<path d="M0 0 C1.65 0 3.3 0 5 0 C6.69856249 7.23303699 7.44987551 14.20157707 7.5625 21.625 C7.63694336 23.10226563 7.63694336 23.10226563 7.71289062 24.609375 C7.79001926 30.11856299 7.28022468 33.35418874 3.640625 37.6171875 C-0.79343711 42.12713535 -4.74437732 43.05692421 -10.9375 43.375 C-15.85133108 43.22743751 -19.41945322 42.49854953 -23 39 C-30.880985 28.51931345 -29.1857846 14.42692527 -29 2 C-27.02 2 -25.04 2 -23 2 C-22.95512451 2.75619629 -22.91024902 3.51239258 -22.86401367 4.29150391 C-22.65193962 7.73698091 -22.41991689 11.18083791 -22.1875 14.625 C-22.08211914 16.40970703 -22.08211914 16.40970703 -21.97460938 18.23046875 C-21.89404297 19.38417969 -21.81347656 20.53789063 -21.73046875 21.7265625 C-21.66239014 22.78439941 -21.59431152 23.84223633 -21.52416992 24.93212891 C-20.76466146 29.37739361 -19.19536382 32.80463618 -16 36 C-13.50572157 36.39641961 -13.50572157 36.39641961 -10.6875 36.375 C-9.27017578 36.41753906 -9.27017578 36.41753906 -7.82421875 36.4609375 C-4.09537827 35.85235773 -2.62339222 34.71154604 0 32 C0.68903557 28.52392408 0.68903557 28.52392408 0.48828125 24.609375 C0.48120651 23.90476135 0.47413177 23.20014771 0.46684265 22.47418213 C0.43893357 20.23169109 0.37621287 17.99173129 0.3125 15.75 C0.28741211 14.22659866 0.26459978 12.70315803 0.24414062 11.1796875 C0.18912213 7.45230751 0.10287804 3.72640094 0 0 Z " fill="#D2AD3D" transform="translate(485,70)"/>
<path d="M0 0 C3.83307169 -0.11719175 7.66567608 -0.18758077 11.5 -0.25 C12.57765625 -0.28351562 13.6553125 -0.31703125 14.765625 -0.3515625 C21.41386434 -0.43263859 26.51121525 0.03285854 32 4 C33.83984375 5.81640625 33.83984375 5.81640625 34.9375 7.5625 C35.31777344 8.14128906 35.69804688 8.72007812 36.08984375 9.31640625 C38.62248115 14.00124196 38.55243453 18.82092632 38 24 C36.34031527 29.2947551 33.78108012 33.06615538 29 36 C19.91703989 40.25404461 10.86494814 40.13351058 1 40 C0.29346466 26.65475011 -0.14849149 13.36423419 0 0 Z M4 3 C4.33 13.89 4.66 24.78 5 36 C17.88733432 36.68491405 17.88733432 36.68491405 28.84765625 31.34765625 C32.91500228 26.79953646 34.31823205 23.31932957 34.21484375 17.05859375 C33.74883936 12.59342446 31.81680073 9.77381122 28.625 6.75 C23.09133092 3.06088728 18.65152256 2.73521729 12.1875 2.875 C9.485625 2.91625 6.78375 2.9575 4 3 Z " fill="#C39E2F" transform="translate(499,866)"/>
<path d="M0 0 C2.75329021 1.79562405 4.52627461 3.05254922 6 6 C6.07199934 8.88573352 6.0927068 11.74065115 6.0625 14.625 C6.041875 17.38875 6.02125 20.1525 6 23 C-0.6 23 -7.2 23 -14 23 C-14.46108568 6.70830608 -14.46108568 6.70830608 -9.25 1.125 C-5.95966302 -0.52016849 -3.62891507 -0.44565624 0 0 Z " fill="#070601" transform="translate(902,481)"/>
<path d="M0 0 C0 0.99 0 1.98 0 3 C-14.59681093 7.40774487 -14.59681093 7.40774487 -22 8 C-21.7834375 8.75925781 -21.566875 9.51851562 -21.34375 10.30078125 C-21.0653125 11.29464844 -20.786875 12.28851562 -20.5 13.3125 C-20.2215625 14.29863281 -19.943125 15.28476562 -19.65625 16.30078125 C-19 19 -19 19 -19 22 C-18.43490723 21.84853516 -17.86981445 21.69707031 -17.28759766 21.54101562 C-14.73407552 20.85811524 -12.17955836 20.17901336 -9.625 19.5 C-8.73554687 19.26152344 -7.84609375 19.02304687 -6.9296875 18.77734375 C-5.65351562 18.43896484 -5.65351562 18.43896484 -4.3515625 18.09375 C-3.56604004 17.88427734 -2.78051758 17.67480469 -1.97119141 17.45898438 C0 17 0 17 2 17 C2 18.32 2 19.64 2 21 C-0.79104343 21.6693723 -3.58277023 22.33561092 -6.375 23 C-7.1690625 23.19078125 -7.963125 23.3815625 -8.78125 23.578125 C-9.54179688 23.75859375 -10.30234375 23.9390625 -11.0859375 24.125 C-11.7876709 24.29257812 -12.4894043 24.46015625 -13.21240234 24.6328125 C-15 25 -15 25 -17 25 C-16.01 29.29 -15.02 33.58 -14 38 C-8.02488983 37.42547018 -2.43486358 36.17270997 3.36328125 34.62109375 C6 34 6 34 9 34 C9 35.32 9 36.64 9 38 C6.56363885 38.62972446 4.12603705 39.25380086 1.6875 39.875 C1.01654297 40.04902344 0.34558594 40.22304688 -0.34570312 40.40234375 C-6.18316571 41.88226384 -12.06711589 42.97544849 -18 44 C-19.28625254 38.929109 -20.56787741 33.85707958 -21.84521484 28.78393555 C-22.28046488 27.05802797 -22.71698108 25.3324392 -23.15478516 23.60717773 C-23.78360263 21.12826804 -24.40786806 18.64825013 -25.03125 16.16796875 C-25.22811401 15.39599655 -25.42497803 14.62402435 -25.62780762 13.82865906 C-26.38269301 10.8100668 -27 8.12469987 -27 5 C-23.43955555 4.15771542 -19.87634656 3.32776097 -16.3125 2.5 C-14.80139648 2.14228516 -14.80139648 2.14228516 -13.25976562 1.77734375 C-12.28330078 1.55175781 -11.30683594 1.32617188 -10.30078125 1.09375 C-9.40528564 0.88427734 -8.50979004 0.67480469 -7.5871582 0.45898438 C-5.00030935 0.00005488 -2.62111026 -0.08261971 0 0 Z " fill="#BE9B2E" transform="translate(605,852)"/>
<path d="M0 0 C4.36045847 2.22136563 7.13277421 4.43567029 9 9 C9.55872558 12.8179581 9.40679448 15.95758915 8 19.5625 C3.97162916 24.47207696 -0.74665132 29.24124568 -7 31 C-6.6390625 31.60328125 -6.278125 32.2065625 -5.90625 32.828125 C-5.21015625 34.02695312 -5.21015625 34.02695312 -4.5 35.25 C-4.0359375 36.03890625 -3.571875 36.8278125 -3.09375 37.640625 C-2 40 -2 40 -2 44 C-2.99 44 -3.98 44 -5 44 C-6.72998047 41.99975586 -6.72998047 41.99975586 -8.6171875 39.21484375 C-9.30683594 38.20873047 -9.99648438 37.20261719 -10.70703125 36.16601562 C-11.42246094 35.10060547 -12.13789062 34.03519531 -12.875 32.9375 C-14.2888241 30.86311874 -15.70288121 28.78889628 -17.1171875 26.71484375 C-17.78331055 25.73112793 -18.44943359 24.74741211 -19.13574219 23.73388672 C-21.3740583 20.45145301 -23.67146431 17.21885816 -26 14 C-24.50780028 9.47158835 -20.85826961 7.66387516 -17 5.3125 C-16.03707031 4.70825195 -16.03707031 4.70825195 -15.0546875 4.09179688 C-9.81437532 0.81934251 -6.27261271 -0.8410207 0 0 Z M-19 11 C-19.86660867 12.88948214 -19.86660867 12.88948214 -20 15 C-19.23729555 16.80782397 -19.23729555 16.80782397 -17.91015625 18.453125 C-17.22856445 19.38125 -17.22856445 19.38125 -16.53320312 20.328125 C-16.04787109 20.96234375 -15.56253906 21.5965625 -15.0625 22.25 C-14.58103516 22.8996875 -14.09957031 23.549375 -13.60351562 24.21875 C-12.41364358 25.82095394 -11.20826972 27.41162434 -10 29 C-6.11465949 26.84768907 -2.47121763 24.82028833 0.875 21.875 C1.73738281 21.12863281 1.73738281 21.12863281 2.6171875 20.3671875 C4.86884224 18.14097519 5.00843351 16.91060477 5.3125 13.6875 C4.95124058 9.42463889 3.98007946 7.98007946 1 5 C-6.46095639 1.2695218 -13.2934642 6.14253354 -19 11 Z " fill="#C49F30" transform="translate(733,793)"/>
<path d="M0 0 C0.99 0.33 1.98 0.66 3 1 C1.34136495 5.32504836 -1.871041 8.09418825 -5.125 11.25 C-5.68832031 11.80429687 -6.25164063 12.35859375 -6.83203125 12.9296875 C-8.21686028 14.29104485 -9.60783204 15.64614859 -11 17 C-9.61811547 20.21043882 -8.07578097 22.04936365 -5.375 24.25 C-4.26125 25.1575 -3.1475 26.065 -2 27 C2.29 22.71 6.58 18.42 11 14 C11.99 14.33 12.98 14.66 14 15 C12.38989473 19.07376031 9.46177729 21.76507069 6.375 24.75 C5.859375 25.25660156 5.34375 25.76320313 4.8125 26.28515625 C3.54616661 27.52803902 2.2736856 28.76465276 1 30 C1.91122727 31.10865985 2.82926659 32.21172219 3.75 33.3125 C4.26046875 33.92738281 4.7709375 34.54226563 5.296875 35.17578125 C7.05538534 37.05932329 8.89919636 38.51573656 11 40 C13.31655803 37.71240451 15.62753483 35.41925113 17.9375 33.125 C18.59685547 32.47402344 19.25621094 31.82304688 19.93554688 31.15234375 C20.56396484 30.52714844 21.19238281 29.90195312 21.83984375 29.2578125 C22.42113037 28.6817627 23.00241699 28.10571289 23.60131836 27.51220703 C25.09951936 26.03347525 25.09951936 26.03347525 26 24 C26.99 24.33 27.98 24.66 29 25 C28.43379699 28.77468671 26.87731019 30.47551893 24.18359375 33.109375 C23.41982422 33.86347656 22.65605469 34.61757813 21.86914062 35.39453125 C21.06669922 36.17183594 20.26425781 36.94914063 19.4375 37.75 C18.22803711 38.93916016 18.22803711 38.93916016 16.99414062 40.15234375 C15.00266222 42.10847046 13.00452279 44.05725719 11 46 C6.89891114 44.37843976 4.16851833 41.4232297 1.140625 38.3359375 C0.59138367 37.78386627 0.04214233 37.23179504 -0.52374268 36.66299438 C-2.27059293 34.90498185 -4.01034601 33.1401311 -5.75 31.375 C-6.93573591 30.1792292 -8.1219288 28.98391135 -9.30859375 27.7890625 C-12.21105085 24.86459747 -15.1071641 21.93398126 -18 19 C-14.07711742 14.29658874 -9.98981304 9.85726049 -5.625 5.5625 C-5.07972656 5.02173828 -4.53445313 4.48097656 -3.97265625 3.92382812 C-2.65076536 2.61353277 -1.32572382 1.30641716 0 0 Z " fill="#C5A030" transform="translate(783,741)"/>
<path d="M0 0 C3.4375 2 3.4375 2 6 5 C7.38055778 10.52223113 6.02384037 13.33839585 3.12548828 18.20117188 C1.47332908 20.84175951 -0.24330356 23.4276945 -2 26 C-7.97842675 22.75085503 -13.47131676 18.96018357 -19 15 C-17.94890486 13.24312628 -16.88356877 11.49476874 -15.8125 9.75 C-15.22082031 8.77546875 -14.62914062 7.8009375 -14.01953125 6.796875 C-10.08889085 1.35328017 -6.82864023 -1.07820635 0 0 Z " fill="#030200" transform="translate(836,690)"/>
<path d="M0 0 C0 1.32 0 2.64 0 4 C-0.65226563 4.09796875 -1.30453125 4.1959375 -1.9765625 4.296875 C-7.43682751 5.23107963 -11.80405877 6.12682348 -16 10 C-17.15196754 12.99096209 -17.15196754 12.99096209 -17 16 C-16.34 16.99 -15.68 17.98 -15 19 C-12.84787759 19.27384495 -12.84787759 19.27384495 -10.38671875 18.96875 C-9.0090332 18.86626953 -9.0090332 18.86626953 -7.60351562 18.76171875 C-5.67113003 18.58828294 -3.73883665 18.41381635 -1.80664062 18.23828125 C6.96867282 17.58825803 6.96867282 17.58825803 11 21 C13.35951179 23.35951179 13.34409415 24.01925635 13.4375 27.25 C13.31748135 31.18534828 12.61736925 33.79905209 9.7421875 36.71484375 C3.33716389 41.43962574 -3.23286757 42.50110532 -11 42 C-11.33 40.68 -11.66 39.36 -12 38 C-11.21496094 37.97421875 -10.42992187 37.9484375 -9.62109375 37.921875 C-2.96833276 37.56270754 1.58384998 36.97184335 7 33 C8.39431504 30.21136993 8.25660094 28.07921132 8 25 C4.29264337 22.52842891 2.38852255 22.77300745 -2 23 C-2.78375 23.165 -3.5675 23.33 -4.375 23.5 C-8.28705636 24.24515359 -12.0483948 24.65860087 -16 24 C-19.62618614 21.1292693 -21.69199537 18.89202846 -22.4375 14.3125 C-21.80441027 9.51910635 -19.70414849 7.0233465 -16 4 C-10.8669561 1.16768937 -5.93332091 -0.6245601 0 0 Z " fill="#C09C2F" transform="translate(669,829)"/>
<path d="M0 0 C4.63235294 2.26470588 4.63235294 2.26470588 6 5 C6.45296092 11.35198686 6.13431857 16.99722901 4 23 C-2.14154225 22.41509121 -8.00679849 21.45933748 -14 20 C-13.54610606 13.23854544 -12.93005141 6.23316018 -8.1875 1 C-5.22147788 -0.35589583 -3.23288325 -0.39586326 0 0 Z " fill="#F8F2E1" transform="translate(113,387)"/>
<path d="M0 0 C0.99 0 1.98 0 3 0 C2.44600983 3.97026289 1.50059058 7.29854325 0 11 C0 11.99 0 12.98 0 14 C0.90355225 14.37809814 1.80710449 14.75619629 2.73803711 15.14575195 C6.08419782 16.54935184 9.42417219 17.96717219 12.76245117 19.3894043 C14.2090403 20.00334004 15.65728526 20.61338919 17.10717773 21.21948242 C19.18919709 22.09061129 21.26489064 22.97547574 23.33984375 23.86328125 C23.99089584 24.13215652 24.64194794 24.4010318 25.31272888 24.67805481 C26.91278688 25.37089676 28.46254449 26.17753657 30 27 C30.495 28.485 30.495 28.485 31 30 C30.34 30.66 29.68 31.32 29 32 C27.66038208 31.41714233 27.66038208 31.41714233 26.29370117 30.82250977 C22.97882867 29.3806333 19.663231 27.94043103 16.34741211 26.50073242 C14.91264338 25.87749107 13.47807149 25.2537964 12.04370117 24.62963867 C9.98147383 23.73236634 7.91854322 22.83672879 5.85546875 21.94140625 C5.21473923 21.6622084 4.5740097 21.38301056 3.91386414 21.09535217 C1.29512003 19.96046423 -1.29042233 18.90319256 -4 18 C-4.29003906 18.92232422 -4.29003906 18.92232422 -4.5859375 19.86328125 C-4.84632813 20.67152344 -5.10671875 21.47976563 -5.375 22.3125 C-5.63023437 23.11300781 -5.88546875 23.91351562 -6.1484375 24.73828125 C-7 27 -7 27 -9 30 C-9.99 29.67 -10.98 29.34 -12 29 C-9.95022906 22.51591085 -7.53890107 16.25480069 -4.875 10 C-4.51535156 9.14277344 -4.15570312 8.28554688 -3.78515625 7.40234375 C-1.13188959 1.13188959 -1.13188959 1.13188959 0 0 Z " fill="#C19D2F" transform="translate(859,619)"/>
<path d="M0 0 C0 1.98 0 3.96 0 6 C-8.86864352 7.74647868 -17.75069235 9.32823031 -26.6875 10.6875 C-27.96028809 10.88436401 -27.96028809 10.88436401 -29.25878906 11.08520508 C-33.20611266 11.67398654 -36.99546167 12.17127353 -41 12 C-41.04254356 10.00045254 -41.04080783 7.99958364 -41 6 C-39.09367448 4.09367448 -35.78052935 4.37508565 -33.2265625 4.0625 C-32.54701508 3.97750244 -31.86746765 3.89250488 -31.16732788 3.80493164 C-28.98703282 3.5325628 -26.80610479 3.26580116 -24.625 3 C-22.45109467 2.7337879 -20.2773799 2.46630472 -18.10409546 2.19506836 C-16.12660197 1.94841866 -14.14851752 1.70652088 -12.17041016 1.46484375 C-1.89274928 -0.0420611 -1.89274928 -0.0420611 0 0 Z " fill="#D2AD3E" transform="translate(130,546)"/>
<path d="M0 0 C7.36376392 2.31318236 14.48116363 5.13001722 21.58691406 8.13354492 C22.87385547 8.67436908 24.1636518 9.20844421 25.45605469 9.73608398 C27.3417321 10.50614003 29.21819783 11.29549762 31.09375 12.08984375 C32.75954102 12.78388306 32.75954102 12.78388306 34.45898438 13.49194336 C37 15 37 15 37.93164062 17.05688477 C38 19 38 19 37 21 C32.46526045 20.32036503 28.47121864 18.64717328 24.29296875 16.83984375 C23.56757401 16.53051407 22.84217926 16.22118439 22.09480286 15.90248108 C19.79042892 14.91861847 17.48895556 13.92816731 15.1875 12.9375 C13.62062985 12.26714053 12.05357448 11.59721384 10.48632812 10.92773438 C6.65538878 9.2901605 2.82703613 7.64667391 -1 6 C-0.67 4.02 -0.34 2.04 0 0 Z " fill="#D1AC3A" transform="translate(119,324)"/>
<path d="M0 0 C-0.45148095 2.251385 -0.91144504 4.50106998 -1.375 6.75 C-1.75785156 8.62945313 -1.75785156 8.62945313 -2.1484375 10.546875 C-2.8430125 13.36340848 -3.55680083 15.51518752 -5 18 C-5.97582031 17.22914063 -6.95164062 16.45828125 -7.95703125 15.6640625 C-9.24214129 14.65098305 -10.52730009 13.63796544 -11.8125 12.625 C-12.45509766 12.11710938 -13.09769531 11.60921875 -13.75976562 11.0859375 C-14.38173828 10.59609375 -15.00371094 10.10625 -15.64453125 9.6015625 C-16.21534424 9.15119629 -16.78615723 8.70083008 -17.37426758 8.23681641 C-18.87201655 7.09736659 -20.43415344 6.04389771 -22 5 C-22 4.34 -22 3.68 -22 3 C-19.45953542 2.49311395 -16.91791124 1.99433126 -14.375 1.5 C-13.66214844 1.35691406 -12.94929687 1.21382812 -12.21484375 1.06640625 C-8.07855065 0.26950574 -4.23566321 -0.16034056 0 0 Z " fill="#080601" transform="translate(902,564)"/>
<path d="M0 0 C0 5.61 0 11.22 0 17 C-6.72239529 14.93991112 -12.78592664 12.28217236 -19 9 C-19 8.34 -19 7.68 -19 7 C-16.2100561 5.82905995 -13.41821403 4.66309073 -10.625 3.5 C-9.43390625 2.99919922 -9.43390625 2.99919922 -8.21875 2.48828125 C-7.45820312 2.17246094 -6.69765625 1.85664063 -5.9140625 1.53125 C-5.2123291 1.23798828 -4.5105957 0.94472656 -3.78759766 0.64257812 C-2 0 -2 0 0 0 Z " fill="#F7F0DE" transform="translate(111,474)"/>
</svg>
