<svg version="1.1" id="Layer_1" xmlns="http://www.w3.org/2000/svg" xmlns:xlink="http://www.w3.org/1999/xlink" x="0px" y="0px"
	 width="100%" viewBox="0 0 1000 1000" enable-background="new 0 0 1000 1000" xml:space="preserve">
<path fill="#FFFFFF" opacity="1.000000" stroke="none" 
	d="
M0.999999,472.000000 
	C1.000000,315.071411 1.000000,158.142838 1.000000,1.000000 
	C157.357346,1.000000 313.714783,1.000000 470.324280,1.373761 
	C448.137756,4.596590 425.451385,6.186654 403.309784,10.544627 
	C349.497223,21.136156 298.665955,40.128925 251.130707,67.799324 
	C192.664108,101.832901 142.723557,145.512283 102.067421,199.537415 
	C44.282200,276.324188 11.023790,362.656830 2.807181,458.522736 
	C2.420556,463.033661 1.612035,467.508392 0.999999,472.000000 
z"/>
<path fill="#FFFFFF" opacity="1.000000" stroke="none" 
	d="
M1001.000000,531.000000 
	C1001.000000,687.595520 1001.000000,844.190979 1001.000000,1001.000000 
	C843.975952,1001.000000 686.951843,1001.000000 529.686218,1000.629944 
	C558.436218,998.802429 587.067200,994.742004 615.278442,987.939514 
	C730.453125,960.168091 824.569153,899.390015 897.105408,805.925842 
	C959.148376,725.982483 992.891907,634.918213 999.999390,533.975830 
	C1000.070557,532.965393 1000.655151,531.991150 1001.000000,531.000000 
z"/>
<path fill="#FFFFFF" opacity="1.000000" stroke="none" 
	d="
M470.000000,1001.000000 
	C313.737946,1001.000000 157.475861,1001.000000 1.000000,1001.000000 
	C1.000000,844.642639 1.000000,688.285217 1.395891,531.645752 
	C4.554834,575.884888 12.790441,619.380371 27.277021,661.560608 
	C58.864285,753.532410 112.473335,830.325867 188.320251,891.146240 
	C266.897095,954.155823 356.627747,990.120300 457.035522,999.209351 
	C461.375488,999.602234 465.679321,1000.393982 470.000000,1001.000000 
z"/>
<path fill="#FFFFFF" opacity="1.000000" stroke="none" 
	d="
M530.000000,1.000001 
	C686.928650,1.000000 843.857300,1.000000 1001.000000,1.000000 
	C1001.000000,157.690674 1001.000000,314.381470 1000.604614,471.353821 
	C997.745667,451.009247 996.393555,430.177551 992.623657,409.792999 
	C977.385986,327.399841 943.494812,253.354721 890.954956,187.981216 
	C840.109253,124.715698 777.530579,76.547371 703.422424,43.558025 
	C652.633545,20.949280 599.432495,7.315467 543.967468,2.720047 
	C539.296204,2.333023 534.655090,1.581947 530.000000,1.000001 
z"/>
<path fill="#090909" opacity="1.000000" stroke="none" 
	d="
M529.531372,1.000001 
	C534.655090,1.581947 539.296204,2.333023 543.967468,2.720047 
	C599.432495,7.315467 652.633545,20.949280 703.422424,43.558025 
	C777.530579,76.547371 840.109253,124.715698 890.954956,187.981216 
	C943.494812,253.354721 977.385986,327.399841 992.623657,409.792999 
	C996.393555,430.177551 997.745667,451.009247 1000.604614,471.817688 
	C1001.000000,491.354218 1001.000000,510.708466 1001.000000,530.531372 
	C1000.655151,531.991150 1000.070557,532.965393 999.999390,533.975830 
	C992.891907,634.918213 959.148376,725.982483 897.105408,805.925842 
	C824.569153,899.390015 730.453125,960.168091 615.278442,987.939514 
	C587.067200,994.742004 558.436218,998.802429 529.222351,1000.629944 
	C509.645782,1001.000000 490.291534,1001.000000 470.468658,1001.000000 
	C465.679321,1000.393982 461.375488,999.602234 457.035522,999.209351 
	C356.627747,990.120300 266.897095,954.155823 188.320251,891.146240 
	C112.473335,830.325867 58.864285,753.532410 27.277021,661.560608 
	C12.790441,619.380371 4.554834,575.884888 1.395891,531.181885 
	C1.000000,511.645782 1.000000,492.291534 0.999999,472.468658 
	C1.612035,467.508392 2.420556,463.033661 2.807181,458.522736 
	C11.023790,362.656830 44.282200,276.324188 102.067421,199.537415 
	C142.723557,145.512283 192.664108,101.832901 251.130707,67.799324 
	C298.665955,40.128925 349.497223,21.136156 403.309784,10.544627 
	C425.451385,6.186654 448.137756,4.596590 470.788177,1.373761 
	C490.354218,1.000000 509.708466,1.000000 529.531372,1.000001 
M601.989319,16.247633 
	C579.232910,13.189615 556.556458,9.158834 533.703003,7.282401 
	C490.295105,3.718297 447.126404,7.138579 404.424103,15.501842 
	C349.735809,26.212576 298.335785,45.869957 250.383514,74.231583 
	C174.656265,119.020889 114.586700,179.503296 70.934555,255.920502 
	C34.406471,319.866394 13.338666,388.671906 7.665196,462.211578 
	C4.611538,501.793152 6.155327,541.145874 12.337831,580.281799 
	C18.330013,618.212891 28.902069,654.926025 43.634293,690.413757 
	C74.615471,765.042786 121.420067,828.098389 183.007034,880.210754 
	C241.311478,929.545654 307.860504,963.011169 381.878784,981.342224 
	C433.814850,994.204468 486.578461,998.436523 540.029053,994.235474 
	C586.810242,990.558655 632.049683,980.365295 675.961548,963.961182 
	C744.298218,938.432678 803.566956,899.049133 854.594116,847.096375 
	C889.496582,811.560730 918.533752,771.727112 941.233093,727.372925 
	C969.814514,671.525085 987.365112,612.409180 993.488892,549.903748 
	C997.490417,509.059753 996.517761,468.332092 990.596802,427.787811 
	C984.071350,383.104645 971.423340,340.099243 952.914246,298.888947 
	C915.520447,215.632156 859.131348,147.853409 784.681152,95.391167 
	C729.630554,56.599083 668.800171,30.413784 601.989319,16.247633 
z"/>
<path fill="#A6A6A6" opacity="1.000000" stroke="none" 
	d="
M602.396667,16.371216 
	C668.800171,30.413784 729.630554,56.599083 784.681152,95.391167 
	C859.131348,147.853409 915.520447,215.632156 952.914246,298.888947 
	C971.423340,340.099243 984.071350,383.104645 990.596802,427.787811 
	C996.517761,468.332092 997.490417,509.059753 993.488892,549.903748 
	C987.365112,612.409180 969.814514,671.525085 941.233093,727.372925 
	C918.533752,771.727112 889.496582,811.560730 854.594116,847.096375 
	C803.566956,899.049133 744.298218,938.432678 675.961548,963.961182 
	C632.049683,980.365295 586.810242,990.558655 540.029053,994.235474 
	C486.578461,998.436523 433.814850,994.204468 381.878784,981.342224 
	C307.860504,963.011169 241.311478,929.545654 183.007034,880.210754 
	C121.420067,828.098389 74.615471,765.042786 43.634293,690.413757 
	C28.902069,654.926025 18.330013,618.212891 12.337831,580.281799 
	C6.155327,541.145874 4.611538,501.793152 7.665196,462.211578 
	C13.338666,388.671906 34.406471,319.866394 70.934555,255.920502 
	C114.586700,179.503296 174.656265,119.020889 250.383514,74.231583 
	C298.335785,45.869957 349.735809,26.212576 404.424103,15.501842 
	C447.126404,7.138579 490.295105,3.718297 533.703003,7.282401 
	C556.556458,9.158834 579.232910,13.189615 602.396667,16.371216 
M512.003235,912.055115 
	C512.720093,913.018738 513.436890,913.982422 514.640808,915.438477 
	C516.771179,918.929749 518.901550,922.421082 521.022339,926.613098 
	C521.277588,927.252136 521.532776,927.891113 521.788086,928.530212 
	C522.240662,928.244568 522.693298,927.958923 523.837524,927.910706 
	C530.549988,931.999451 537.869446,932.446106 545.433899,931.576172 
	C560.554871,929.837341 575.680664,928.140686 591.110596,927.082581 
	C592.073547,926.742126 593.036499,926.401611 594.746094,925.766663 
	C597.106934,925.366150 599.467773,924.965637 602.167053,925.189636 
	C603.111389,924.800171 604.055664,924.410645 605.688477,923.637329 
	C611.748474,922.320923 617.808533,921.004517 624.275024,920.311829 
	C626.962769,921.578796 628.898132,920.907959 630.677429,917.731323 
	C634.424561,916.755554 638.171631,915.779724 642.300232,915.374573 
	C643.200745,914.875977 644.101196,914.377441 645.552063,913.384888 
	C660.026367,908.235352 674.500732,903.085815 689.397156,898.480408 
	C690.224731,897.872192 691.052307,897.263977 692.355530,896.192139 
	C694.216858,895.451843 696.078247,894.711487 698.610718,894.261719 
	C701.490723,895.626526 702.855957,894.641357 703.366455,891.094604 
	C709.745850,888.015015 716.125183,884.935486 723.377686,881.929810 
	C726.541382,882.166382 729.463684,882.008911 730.337708,877.337646 
	C733.095581,875.847473 735.853394,874.357239 739.392456,872.930786 
	C740.250000,872.254272 741.107544,871.577698 742.342285,870.337219 
	C744.740356,868.872253 747.239929,867.549316 749.520203,865.919556 
	C764.986755,854.865051 780.406982,843.745728 796.190857,833.218140 
	C796.779175,832.439209 797.367493,831.660278 798.243286,830.282654 
	C802.448059,826.750427 806.652832,823.218201 811.264343,820.309875 
	C816.067688,821.755188 814.612061,818.064026 815.198792,815.228516 
	C821.414856,809.133240 827.630920,803.037964 834.661194,796.974426 
	C839.266113,797.147095 840.367493,794.494629 840.057007,789.957947 
	C841.328674,788.622864 842.600281,787.287720 844.687866,785.959351 
	C845.407532,784.805664 846.127258,783.651917 847.059509,781.894104 
	C849.694702,778.925354 852.329895,775.956543 855.656006,772.986267 
	C856.004883,772.280212 856.353821,771.574158 856.911987,770.275818 
	C857.601807,769.515076 858.291565,768.754272 859.676147,767.987915 
	C860.299561,767.715027 860.922913,767.442139 861.546326,767.169189 
	C861.244629,766.726257 860.942932,766.283325 860.894470,765.192322 
	C868.317505,754.795288 875.740540,744.398254 883.843445,733.986450 
	C884.071228,733.257202 884.298950,732.527954 884.796814,731.141174 
	C887.166809,727.416504 889.536804,723.691833 892.659363,719.862366 
	C893.063477,718.786194 893.467590,717.710022 893.945374,716.027893 
	C894.386963,715.353394 894.828552,714.678833 895.933960,713.985718 
	C896.139160,713.259888 896.344360,712.534058 896.801270,711.135620 
	C898.296570,708.425415 899.791870,705.715271 901.999451,702.986389 
	C906.057861,700.982788 907.319763,698.033997 905.726929,694.152222 
	C906.651489,692.382935 907.576050,690.613647 909.271545,688.884277 
	C912.849243,688.237915 912.046265,686.116821 910.996399,683.199158 
	C912.169861,680.748535 913.343323,678.297974 915.303467,675.880920 
	C918.292542,675.027588 918.901794,673.411682 916.884033,670.407959 
	C917.117004,669.930664 917.350037,669.453308 918.313538,668.940186 
	C918.514954,667.949707 918.716370,666.959290 918.952393,665.219360 
	C921.986267,657.479492 925.020142,649.739624 928.652466,641.922241 
	C928.703979,641.255920 928.755432,640.589600 928.859192,639.160889 
	C942.178528,599.650635 949.763062,559.065002 951.737122,517.420410 
	C952.226074,507.104858 948.174927,499.081757 939.047852,494.381927 
	C935.203613,492.402405 930.456909,492.175507 926.039795,490.197388 
	C926.094543,466.025726 923.953125,442.019928 919.551025,418.282837 
	C908.890747,360.800446 887.427124,307.659882 854.575623,259.211334 
	C825.693542,216.616837 790.335327,180.367798 748.157288,150.829208 
	C707.288269,122.207428 662.763367,101.417061 614.544067,88.552513 
	C584.877136,80.637611 554.641785,76.521744 524.068542,74.018944 
	C526.067383,61.383564 516.275574,50.410057 502.164062,51.675774 
	C490.089905,52.758755 477.841095,51.923496 465.774475,53.055275 
	C448.277161,54.696415 430.741486,56.609718 413.461548,59.731735 
	C385.750214,64.738419 359.028839,73.430725 332.973877,84.120636 
	C304.846191,95.660942 278.249817,110.082687 253.182480,127.237534 
	C222.975357,147.909790 195.882935,172.123642 171.694778,199.639771 
	C151.281540,222.861588 133.468658,247.913879 118.676369,275.003265 
	C95.317413,317.780884 78.659836,362.991425 70.730347,411.264954 
	C65.733398,441.685608 63.369881,472.185516 64.709480,503.067871 
	C65.728455,526.558472 68.740181,549.700500 73.027420,572.748413 
	C75.061455,583.683289 83.038101,590.281250 94.069489,589.998169 
	C96.387367,589.938660 98.706993,589.946960 101.033005,590.734436 
	C104.536407,603.034546 107.488724,615.523804 111.635437,627.603027 
	C133.464676,691.191345 168.389496,746.532166 216.669769,793.438782 
	C254.488724,830.181824 297.700500,858.659912 346.277161,879.077942 
	C396.563324,900.214417 448.878632,911.352905 503.518951,911.109741 
	C506.344849,911.097168 509.171539,911.262695 512.003235,912.055115 
z"/>
<path fill="#010101" opacity="1.000000" stroke="none" 
	d="
M928.054077,641.999817 
	C925.020142,649.739624 921.986267,657.479492 918.679077,665.813843 
	C918.131592,667.264282 917.857361,668.120117 917.583130,668.975952 
	C917.350037,669.453308 917.117004,669.930664 916.622437,670.900269 
	C915.746216,672.877563 915.131531,674.362427 914.516846,675.847351 
	C913.343323,678.297974 912.169861,680.748535 910.703735,683.766907 
	C909.774292,685.837891 909.137451,687.341125 908.500610,688.844360 
	C907.576050,690.613647 906.651489,692.382935 905.402832,694.718140 
	C903.814941,697.857788 902.551086,700.431458 901.287231,703.005127 
	C899.791870,705.715271 898.296570,708.425415 896.471436,711.636169 
	C895.851135,712.759277 895.560669,713.381775 895.270142,714.004333 
	C894.828552,714.678833 894.386963,715.353394 893.634399,716.519958 
	C892.851196,717.997070 892.378967,718.982056 891.906738,719.967102 
	C889.536804,723.691833 887.166809,727.416504 884.453491,731.637451 
	C883.794739,732.756226 883.479187,733.378784 883.163635,734.001221 
	C875.740540,744.398254 868.317505,754.795288 860.523438,765.655762 
	C859.762024,766.743958 859.371704,767.368713 858.981323,767.993469 
	C858.291565,768.754272 857.601807,769.515076 856.551331,770.696472 
	C855.782104,771.740662 855.373535,772.364197 854.965027,772.987732 
	C852.329895,775.956543 849.694702,778.925354 846.668152,782.370239 
	C845.475159,783.881775 844.673523,784.917175 843.871948,785.952637 
	C842.600281,787.287720 841.328674,788.622864 839.654846,790.421570 
	C837.450745,792.904358 835.648865,794.923523 833.846924,796.942688 
	C827.630920,803.037964 821.414856,809.133240 814.771484,815.649536 
	C813.181946,817.275757 812.019775,818.480896 810.857544,819.686035 
	C806.652832,823.218201 802.448059,826.750427 797.827759,830.665405 
	C796.888855,831.581177 796.365540,832.114258 795.842163,832.647339 
	C780.406982,843.745728 764.986755,854.865051 749.520203,865.919556 
	C747.239929,867.549316 744.740356,868.872253 741.825439,870.671326 
	C740.409485,871.625977 739.510376,872.246521 738.611267,872.867065 
	C735.853394,874.357239 733.095581,875.847473 729.799927,877.671021 
	C727.009705,879.288269 724.757141,880.572144 722.504517,881.855957 
	C716.125183,884.935486 709.745850,888.015015 702.771118,891.411011 
	C700.763794,892.475281 699.351746,893.223267 697.939636,893.971191 
	C696.078247,894.711487 694.216858,895.451843 691.794189,896.477600 
	C690.480286,897.154175 689.727661,897.545227 688.975037,897.936279 
	C674.500732,903.085815 660.026367,908.235352 644.942261,913.621826 
	C643.527832,914.173828 642.723267,914.488831 641.918701,914.803894 
	C638.171631,915.779724 634.424561,916.755554 629.975830,917.882324 
	C627.472351,918.584900 625.670410,919.136475 623.868530,919.688110 
	C617.808533,921.004517 611.748474,922.320923 605.016479,923.785278 
	C603.505859,924.143860 602.667236,924.354492 601.828613,924.565125 
	C599.467773,924.965637 597.106934,925.366150 594.049072,925.860962 
	C592.502808,926.112427 591.653687,926.269531 590.804504,926.426636 
	C575.680664,928.140686 560.554871,929.837341 545.433899,931.576172 
	C537.869446,932.446106 530.549988,931.999451 523.363403,927.537781 
	C522.270203,926.747375 521.651062,926.329895 521.031921,925.912354 
	C518.901550,922.421082 516.771179,918.929749 514.401733,914.856506 
	C513.962219,913.187866 513.761719,912.101135 513.595947,910.561401 
	C513.435791,907.395874 513.241028,904.683472 513.214966,901.566162 
	C513.603149,887.835571 513.717285,874.507080 514.070801,861.184998 
	C514.440918,847.237488 523.732849,838.061157 537.598755,836.932983 
	C549.698120,835.948425 561.830872,834.872070 573.806152,832.947815 
	C638.971558,822.476624 696.409180,795.071106 745.092590,750.806885 
	C814.342468,687.843140 851.283691,608.911743 856.969971,515.438721 
	C857.705811,503.343536 866.102478,493.826691 878.232849,492.951965 
	C891.174072,492.018768 904.183655,492.032806 917.569336,491.705750 
	C920.690308,491.569397 923.405334,491.360626 926.120422,491.151855 
	C930.456909,492.175507 935.203613,492.402405 939.047852,494.381927 
	C948.174927,499.081757 952.226074,507.104858 951.737122,517.420410 
	C949.763062,559.065002 942.178528,599.650635 928.605591,639.727905 
	C928.252686,640.863281 928.153442,641.431580 928.054077,641.999817 
M556.608093,861.081177 
	C554.417847,861.195190 552.753052,861.538269 553.204285,864.548157 
	C554.678162,874.378174 555.952393,884.238220 557.377502,894.626587 
	C562.931274,893.796814 568.232910,893.371704 573.348450,892.160767 
	C582.807495,889.921814 587.499939,882.594971 586.035278,873.158997 
	C584.726807,864.729370 577.686035,859.309753 568.374390,859.786255 
	C564.726929,859.972900 561.101501,860.589111 556.608093,861.081177 
M914.952698,536.503052 
	C914.243103,536.042542 913.268311,535.020447 912.865967,535.210510 
	C909.647766,536.730469 906.537903,538.479553 903.081909,540.325745 
	C901.133362,533.991455 897.061401,531.371521 891.222473,531.646912 
	C886.082397,531.889404 882.762207,534.950073 881.586304,539.680603 
	C880.283081,544.923645 879.752075,550.358582 878.831543,556.038330 
	C890.179382,557.466858 900.843872,558.809265 911.923523,560.204041 
	C911.923523,558.895691 912.110779,557.522339 911.895447,557.456055 
	C908.698547,556.471252 905.448242,555.659729 902.258667,554.819824 
	C902.997986,544.175903 903.005310,544.189148 911.557861,539.438904 
	C912.698303,538.805481 913.719604,537.957581 914.952698,536.503052 
M846.792847,715.782227 
	C844.223328,715.782227 841.653809,715.782227 839.133057,715.782227 
	C838.853516,707.428040 836.492554,703.652527 830.882141,701.888123 
	C825.912781,700.325378 821.375488,702.367310 817.035339,708.258362 
	C814.687256,711.445496 812.477173,714.734436 809.997620,718.273193 
	C818.517456,724.287537 826.723999,730.160339 835.061157,735.841431 
	C835.884094,736.402222 837.506714,735.789368 838.758179,735.721313 
	C838.762329,735.227356 838.766479,734.733459 838.770630,734.239502 
	C836.139343,732.324585 833.508057,730.409607 831.071899,728.636658 
	C833.996033,721.052002 838.738464,717.382202 846.801208,718.832703 
	C848.338135,719.109131 850.165222,717.773315 851.858459,717.181335 
	C851.724060,716.707092 851.589722,716.232910 851.455383,715.758728 
	C850.172607,715.758728 848.889893,715.758728 846.792847,715.782227 
M635.325684,843.870605 
	C629.660767,845.650513 623.995911,847.430420 618.143372,849.269287 
	C621.552795,860.087341 624.790222,870.359802 628.117310,880.916626 
	C635.014648,878.782837 641.516296,876.855713 647.938110,874.691650 
	C648.873901,874.376404 649.428650,872.930420 650.159668,872.007629 
	C649.834106,871.715637 649.508545,871.423645 649.183044,871.131653 
	C643.060364,872.971863 636.937744,874.812134 630.635132,876.706482 
	C629.336914,872.590515 628.242065,869.119385 627.030579,865.278564 
	C631.730286,863.801086 636.326233,862.437500 640.847778,860.860779 
	C641.671265,860.573547 642.191223,859.416016 642.851318,858.660278 
	C641.883972,858.419983 640.807983,857.778564 639.967285,858.006165 
	C635.388367,859.245850 630.867249,860.699524 626.016846,862.173645 
	C624.835388,858.248901 623.808716,854.838196 622.713501,851.199890 
	C629.084351,849.117188 634.949280,847.199890 640.814209,845.282532 
	C640.703369,844.651794 640.592468,844.020996 640.481628,843.390198 
	C639.017212,843.471863 637.552795,843.553467 635.325684,843.870605 
M797.304138,760.231873 
	C796.074951,760.212463 794.330261,759.658081 793.702637,760.262939 
	C790.365845,763.478516 787.309204,766.984802 784.629822,769.878296 
	C781.376343,766.792664 778.755066,764.306641 775.312256,761.041443 
	C779.166504,757.498230 783.121399,753.960632 786.926331,750.268433 
	C787.557068,749.656311 787.532104,748.368408 787.810120,747.392883 
	C786.835388,747.569641 785.562073,747.413025 784.933289,747.976074 
	C779.984741,752.407898 775.159424,756.977234 771.341492,760.531067 
	C779.725708,769.188721 787.299805,777.009827 794.868958,784.825806 
	C799.360840,780.400024 804.159668,775.786560 808.779236,770.999878 
	C809.499146,770.253967 809.401794,768.719238 809.682312,767.549316 
	C808.874268,767.115173 808.066162,766.681030 807.258118,766.246887 
	C803.011780,771.046509 798.765381,775.846130 794.695007,780.446838 
	C791.816589,777.429871 789.226929,774.715637 785.652466,770.969238 
	C789.300598,767.777466 793.186401,764.377625 797.304138,760.231873 
M742.240051,814.881287 
	C744.091858,813.481506 746.031555,812.182800 747.779480,810.663452 
	C753.623352,805.583984 754.555664,799.842529 750.510498,794.506287 
	C746.614563,789.366821 740.822449,788.495239 734.591248,792.426697 
	C730.681824,794.893311 727.020691,797.753296 722.915100,800.673767 
	C729.078125,809.210571 735.032532,817.562988 741.172241,825.776978 
	C741.699463,826.482239 743.456116,826.268616 744.641663,826.481812 
	C743.587158,823.226685 741.879456,821.339600 740.837646,819.137451 
	C740.388000,818.187134 741.315552,816.585388 742.240051,814.881287 
M871.808105,602.110229 
	C867.296448,603.156738 866.067383,604.942871 868.535217,607.190063 
	C876.957886,614.859741 885.575745,622.315063 894.119080,629.852234 
	C894.568909,629.591064 895.018677,629.329956 895.468445,629.068787 
	C894.854126,627.687073 894.621460,625.656738 893.561218,625.032959 
	C888.207031,621.883118 888.320862,617.720459 890.575317,612.813354 
	C891.259766,611.323486 891.731506,609.681580 891.987671,608.059875 
	C892.659607,603.806152 894.828003,601.789062 899.330444,601.842041 
	C900.976746,601.861450 902.641235,600.338013 904.297424,599.518372 
	C904.062073,598.982056 903.826721,598.445801 903.591370,597.909485 
	C893.273010,599.283936 882.954712,600.658386 871.808105,602.110229 
M678.138916,840.702759 
	C683.146973,840.564636 688.161194,840.534668 693.160706,840.248230 
	C696.205444,840.073792 699.472656,839.397034 700.836670,843.017944 
	C702.192139,846.615845 700.219299,849.444580 697.108032,850.730713 
	C693.089172,852.392029 688.744019,853.263794 683.344543,854.819885 
	C685.015137,855.601746 686.637573,857.062317 687.667786,856.723267 
	C692.444946,855.151062 697.394348,853.623718 701.620117,851.010071 
	C704.834412,849.021851 705.842224,845.158264 704.034119,841.229919 
	C702.217407,837.283142 698.969543,836.193665 694.982727,836.751831 
	C691.696045,837.211914 688.413696,838.355835 685.167542,838.228027 
	C682.912109,838.139343 679.457092,836.889648 678.844177,835.280273 
	C678.182800,833.543823 679.550842,829.866272 681.209595,828.679932 
	C683.895630,826.759033 687.552979,826.210632 690.774963,825.014648 
	C691.559387,824.723389 692.245728,824.167786 692.977173,823.733765 
	C692.206970,823.148926 691.268433,821.929932 690.693970,822.082397 
	C687.061584,823.046814 683.167175,823.735596 680.004150,825.606018 
	C673.814026,829.266479 673.186707,834.521057 678.138916,840.702759 
M864.323425,665.183105 
	C859.612305,662.886414 854.901184,660.589722 850.071777,658.235352 
	C851.607483,655.006714 852.930603,652.510254 853.953857,649.896423 
	C854.252869,649.132507 853.697937,648.034363 853.534485,647.089417 
	C852.782410,647.536499 851.667664,647.800171 851.334351,648.459045 
	C847.959534,655.131653 844.676147,661.851929 841.487976,668.615723 
	C841.184631,669.259216 841.700684,670.288879 841.836426,671.139282 
	C842.673035,670.665283 843.855042,670.397766 844.284058,669.680115 
	C845.793335,667.155273 847.043945,664.475708 848.517700,661.611938 
	C856.613892,665.535583 864.386536,669.277649 872.132996,673.072937 
	C874.228699,674.099731 876.179626,675.110535 876.587891,671.235535 
	C872.705200,669.339172 868.836792,667.449707 864.323425,665.183105 
z"/>
<path fill="#F9F3E5" opacity="1.000000" stroke="none" 
	d="
M101.025818,589.924011 
	C98.706993,589.946960 96.387367,589.938660 94.069489,589.998169 
	C83.038101,590.281250 75.061455,583.683289 73.027420,572.748413 
	C68.740181,549.700500 65.728455,526.558472 64.709480,503.067871 
	C63.369881,472.185516 65.733398,441.685608 70.730347,411.264954 
	C78.659836,362.991425 95.317413,317.780884 118.676369,275.003265 
	C133.468658,247.913879 151.281540,222.861588 171.694778,199.639771 
	C195.882935,172.123642 222.975357,147.909790 253.182480,127.237534 
	C278.249817,110.082687 304.846191,95.660942 332.973877,84.120636 
	C359.028839,73.430725 385.750214,64.738419 413.461548,59.731735 
	C430.741486,56.609718 448.277161,54.696415 465.774475,53.055275 
	C477.841095,51.923496 490.089905,52.758755 502.164062,51.675774 
	C516.275574,50.410057 526.067383,61.383564 524.041626,74.917267 
	C524.011902,78.716270 524.009094,81.616951 523.780579,84.911514 
	C523.037720,93.093994 522.370361,100.876190 522.037781,108.672661 
	C521.512573,120.985268 513.579285,128.699356 501.422821,129.061142 
	C489.296600,129.422028 477.173248,130.102554 465.069519,130.943954 
	C444.128906,132.399658 423.506195,136.035248 403.376495,141.878159 
	C375.992584,149.826675 349.505951,160.097275 324.574921,174.166580 
	C297.611084,189.383057 272.739136,207.466080 250.710480,229.165848 
	C239.240417,240.464691 228.538925,252.652924 218.412003,265.184265 
	C194.142044,295.216644 175.899292,328.752991 162.907669,365.090576 
	C151.317169,397.509216 144.613617,430.880432 142.685913,465.350250 
	C141.219452,491.572235 142.539307,517.491150 146.841187,543.332764 
	C147.876328,549.550964 150.022110,555.927429 149.401901,562.000793 
	C148.372345,572.082947 143.642776,577.625916 131.024231,580.820679 
	C123.663170,582.684326 116.395859,584.918335 108.677673,586.988403 
	C105.854584,587.968750 103.440201,588.946411 101.025818,589.924011 
M469.035583,78.551949 
	C469.035583,86.817085 469.035583,95.082222 469.035583,103.816086 
	C471.872681,103.679031 473.231873,103.613373 474.500793,103.552071 
	C474.500793,95.311569 474.500793,87.518700 474.500793,79.044434 
	C480.950317,86.464203 486.854736,93.418755 492.980194,100.172813 
	C494.269745,101.594681 496.370758,102.280594 498.210693,103.372581 
	C498.210693,91.240173 498.210693,80.205986 498.210693,69.192673 
	C493.135590,69.142891 493.126465,69.142883 493.122284,72.898666 
	C493.115021,79.420395 493.120300,85.942146 493.120300,92.922920 
	C486.988007,85.942596 481.075378,79.038635 474.923920,72.354462 
	C473.669403,70.991348 471.517303,70.454300 469.015015,69.133110 
	C469.015015,72.957375 469.015015,75.268051 469.035583,78.551949 
M122.406029,559.079102 
	C123.120430,558.406006 124.531807,557.617188 124.442215,557.077576 
	C123.467789,551.208130 122.830688,545.187988 120.973808,539.582581 
	C118.410507,531.844421 111.567520,528.201904 103.261017,529.039734 
	C95.845985,529.787598 89.459465,535.421204 89.051353,543.290588 
	C88.699562,550.074219 90.059952,556.946655 90.702888,564.227478 
	C101.707977,562.439026 111.652786,560.822876 122.406029,559.079102 
M255.670074,155.442108 
	C243.296524,152.948654 237.149841,162.716003 228.511566,168.478348 
	C232.378052,173.323303 235.785812,177.587265 239.186676,181.856705 
	C242.657288,186.213745 246.121124,190.576202 249.752029,195.142670 
	C254.167374,191.593216 258.356262,188.594650 262.117737,185.131805 
	C272.755981,175.338135 269.913544,161.002304 255.670074,155.442108 
M178.709747,274.410034 
	C179.795700,273.648376 180.963577,272.979980 181.954315,272.109894 
	C188.294449,266.541840 190.379868,257.406281 186.958817,250.428360 
	C183.733551,243.849777 175.778748,239.584076 168.859802,240.742477 
	C160.966263,242.064041 156.245178,247.002472 153.854294,254.318512 
	C151.615051,261.170593 153.430481,267.199707 158.680267,271.948395 
	C164.394241,277.116943 170.968109,278.118866 178.709747,274.410034 
M126.468353,374.041504 
	C125.734589,372.865479 124.282425,371.620148 124.388016,370.525055 
	C124.923141,364.974884 128.007599,361.915405 133.706818,360.777679 
	C138.912460,359.738495 138.820114,359.275879 139.299759,354.636902 
	C135.260742,355.812531 131.388718,356.939545 127.201378,358.158325 
	C126.102654,351.364441 122.052628,348.095001 115.983536,347.425232 
	C111.355988,346.914551 107.641541,349.296417 105.771317,353.215027 
	C103.178223,358.648285 101.442863,364.490845 99.185936,370.574127 
	C110.508995,374.186279 120.894287,377.499268 131.593155,380.912292 
	C132.151840,379.299835 132.610748,377.975342 133.149872,376.419373 
	C130.923996,375.607635 129.072479,374.932404 126.468353,374.041504 
M322.627686,140.934052 
	C318.007355,143.441406 313.387024,145.948761 308.393768,148.658493 
	C306.616302,145.207687 305.140625,142.342728 303.502808,139.163086 
	C308.669312,136.268600 313.373749,133.632965 318.078217,130.997314 
	C317.860657,130.397522 317.643066,129.797729 317.425476,129.197937 
	C311.025299,127.037254 307.081573,134.121155 301.004395,134.854034 
	C299.612396,132.279327 298.138885,129.553864 296.477722,126.481239 
	C302.077423,123.322685 307.374847,120.334633 314.279816,116.439857 
	C311.689789,115.492035 309.973480,114.218651 309.108398,114.650497 
	C302.766693,117.816277 296.595490,121.323647 289.880127,124.991135 
	C295.482849,135.245651 300.760162,144.904572 306.208862,154.877182 
	C313.006439,151.146561 319.149261,147.858780 325.177887,144.373428 
	C326.047607,143.870605 326.368164,142.417908 326.942871,141.404770 
	C325.734100,141.129349 324.525330,140.853928 322.627686,140.934052 
M399.126831,98.322540 
	C399.444183,99.612061 399.723816,100.912262 400.085052,102.189377 
	C402.285889,109.969788 408.410614,114.034470 415.789337,112.632362 
	C425.033752,110.875732 429.390106,105.398186 428.076111,96.576973 
	C427.197479,90.678505 425.727722,84.869720 424.592590,79.007240 
	C423.895752,75.408493 422.006439,75.383774 419.309448,76.928345 
	C420.675903,84.107689 422.360748,91.048294 423.228302,98.089600 
	C423.998688,104.342018 420.566864,107.677597 414.319061,108.135765 
	C408.977203,108.527496 406.255096,105.562134 405.060394,100.935547 
	C403.369812,94.388603 401.980804,87.763786 400.495514,81.313835 
	C396.621674,80.619156 395.434265,82.013084 396.237457,85.372192 
	C397.202271,89.406952 398.083954,93.461586 399.126831,98.322540 
M119.094955,446.453918 
	C118.503914,445.379608 118.161888,443.686005 117.281258,443.331940 
	C111.750259,441.108063 111.081261,437.207336 112.714378,432.106171 
	C113.260361,430.400787 113.340355,428.503754 113.382782,426.688507 
	C113.469376,422.983276 115.202637,420.897369 118.919403,420.508301 
	C122.322105,420.152100 123.888206,418.383484 123.122391,414.411407 
	C112.002609,417.693146 100.905754,420.857758 89.891586,424.287903 
	C86.701553,425.281342 86.193733,429.001587 88.943481,430.783813 
	C97.993484,436.649475 107.154457,442.345642 116.351540,447.978363 
	C116.888412,448.307159 118.121025,447.499969 119.094955,446.453918 
M108.442039,484.373047 
	C100.237526,484.373047 92.033020,484.373047 83.828506,484.373047 
	C83.530014,485.063629 83.231529,485.754181 82.933044,486.444763 
	C84.019226,487.570831 85.082558,489.648224 86.195129,489.674896 
	C96.596992,489.924744 107.007301,489.822998 117.562927,489.822998 
	C117.562927,487.656677 117.562927,486.254669 117.562927,484.366852 
	C114.653397,484.366852 112.035370,484.366852 108.442039,484.373047 
M139.305725,307.217316 
	C135.033585,305.173920 130.761444,303.130524 126.188797,300.943359 
	C125.459824,302.740997 124.935204,304.034698 124.323593,305.542938 
	C134.594315,310.484985 144.524963,315.263367 154.352203,319.992004 
	C156.946640,317.119446 156.593811,315.408875 153.405334,314.010834 
	C148.857101,312.016479 144.431503,309.742432 139.305725,307.217316 
z"/>
<path fill="#FDFDFD" opacity="1.000000" stroke="none" 
	d="
M524.006348,84.517639 
	C524.009094,81.616951 524.011902,78.716270 524.020325,75.367905 
	C554.641785,76.521744 584.877136,80.637611 614.544067,88.552513 
	C662.763367,101.417061 707.288269,122.207428 748.157288,150.829208 
	C790.335327,180.367798 825.693542,216.616837 854.575623,259.211334 
	C887.427124,307.659882 908.890747,360.800446 919.551025,418.282837 
	C923.953125,442.019928 926.094543,466.025726 926.080078,490.674622 
	C923.405334,491.360626 920.690308,491.569397 917.545349,491.261139 
	C915.711487,471.684784 915.350098,452.478790 912.694336,433.595520 
	C906.464966,389.303131 892.833252,347.234070 872.397095,307.336456 
	C847.947388,259.603149 815.434204,218.352631 774.955383,183.219162 
	C727.871399,142.352875 674.073120,114.259201 614.024658,97.986839 
	C584.562744,90.003014 554.556091,85.373680 524.006348,84.517639 
z"/>
<path fill="#FDFDFD" opacity="1.000000" stroke="none" 
	d="
M101.029411,590.329224 
	C103.440201,588.946411 105.854584,587.968750 108.706833,587.365112 
	C113.094727,600.757141 116.725784,613.882324 121.055885,626.772705 
	C133.000107,662.329712 150.020844,695.357666 171.334641,726.208801 
	C192.289703,756.540771 217.353500,783.051819 245.329453,806.976318 
	C282.723145,838.954651 324.873047,862.503357 371.118042,878.939392 
	C397.666199,888.374878 424.889465,895.420654 452.856720,898.543579 
	C472.798828,900.770325 492.974670,900.903503 513.046204,901.971008 
	C513.241028,904.683472 513.435791,907.395874 513.192688,910.585510 
	C512.502502,911.156860 512.250183,911.251099 511.997864,911.345276 
	C509.171539,911.262695 506.344849,911.097168 503.518951,911.109741 
	C448.878632,911.352905 396.563324,900.214417 346.277161,879.077942 
	C297.700500,858.659912 254.488724,830.181824 216.669769,793.438782 
	C168.389496,746.532166 133.464676,691.191345 111.635437,627.603027 
	C107.488724,615.523804 104.536407,603.034546 101.029411,590.329224 
z"/>
<path fill="#A6A6A6" opacity="1.000000" stroke="none" 
	d="
M901.643311,702.995728 
	C902.551086,700.431458 903.814941,697.857788 905.291748,695.039734 
	C907.319763,698.033997 906.057861,700.982788 901.643311,702.995728 
z"/>
<path fill="#A6A6A6" opacity="1.000000" stroke="none" 
	d="
M834.254028,796.958557 
	C835.648865,794.923523 837.450745,792.904358 839.552063,790.711548 
	C840.367493,794.494629 839.266113,797.147095 834.254028,796.958557 
z"/>
<path fill="#A6A6A6" opacity="1.000000" stroke="none" 
	d="
M722.941162,881.892944 
	C724.757141,880.572144 727.009705,879.288269 729.612427,877.950012 
	C729.463684,882.008911 726.541382,882.166382 722.941162,881.892944 
z"/>
<path fill="#A6A6A6" opacity="1.000000" stroke="none" 
	d="
M811.060974,819.997925 
	C812.019775,818.480896 813.181946,817.275757 814.640686,815.952515 
	C814.612061,818.064026 816.067688,821.755188 811.060974,819.997925 
z"/>
<path fill="#A6A6A6" opacity="1.000000" stroke="none" 
	d="
M624.071777,920.000000 
	C625.670410,919.136475 627.472351,918.584900 629.636841,918.061218 
	C628.898132,920.907959 626.962769,921.578796 624.071777,920.000000 
z"/>
<path fill="#A6A6A6" opacity="1.000000" stroke="none" 
	d="
M914.910156,675.864136 
	C915.131531,674.362427 915.746216,672.877563 916.621582,671.173096 
	C918.901794,673.411682 918.292542,675.027588 914.910156,675.864136 
z"/>
<path fill="#A6A6A6" opacity="1.000000" stroke="none" 
	d="
M908.886108,688.864319 
	C909.137451,687.341125 909.774292,685.837891 910.680786,684.115906 
	C912.046265,686.116821 912.849243,688.237915 908.886108,688.864319 
z"/>
<path fill="#A6A6A6" opacity="1.000000" stroke="none" 
	d="
M698.275146,894.116455 
	C699.351746,893.223267 700.763794,892.475281 702.513000,891.628174 
	C702.855957,894.641357 701.490723,895.626526 698.275146,894.116455 
z"/>
<path fill="#A6A6A6" opacity="1.000000" stroke="none" 
	d="
M512.000549,911.700195 
	C512.250183,911.251099 512.502502,911.156860 513.158020,911.038574 
	C513.761719,912.101135 513.962219,913.187866 514.158203,914.610291 
	C513.436890,913.982422 512.720093,913.018738 512.000549,911.700195 
z"/>
<path fill="#A6A6A6" opacity="1.000000" stroke="none" 
	d="
M844.279907,785.955994 
	C844.673523,784.917175 845.475159,783.881775 846.561890,782.672302 
	C846.127258,783.651917 845.407532,784.805664 844.279907,785.955994 
z"/>
<path fill="#A6A6A6" opacity="1.000000" stroke="none" 
	d="
M590.957520,926.754639 
	C591.653687,926.269531 592.502808,926.112427 593.675720,926.008179 
	C593.036499,926.401611 592.073547,926.742126 590.957520,926.754639 
z"/>
<path fill="#A6A6A6" opacity="1.000000" stroke="none" 
	d="
M601.997803,924.877380 
	C602.667236,924.354492 603.505859,924.143860 604.672241,923.977173 
	C604.055664,924.410645 603.111389,924.800171 601.997803,924.877380 
z"/>
<path fill="#A6A6A6" opacity="1.000000" stroke="none" 
	d="
M642.109497,915.089233 
	C642.723267,914.488831 643.527832,914.173828 644.667053,913.868774 
	C644.101196,914.377441 643.200745,914.875977 642.109497,915.089233 
z"/>
<path fill="#A6A6A6" opacity="1.000000" stroke="none" 
	d="
M689.186096,898.208374 
	C689.727661,897.545227 690.480286,897.154175 691.556396,896.709412 
	C691.052307,897.263977 690.224731,897.872192 689.186096,898.208374 
z"/>
<path fill="#A6A6A6" opacity="1.000000" stroke="none" 
	d="
M917.948364,668.958130 
	C917.857361,668.120117 918.131592,667.264282 918.661865,666.188599 
	C918.716370,666.959290 918.514954,667.949707 917.948364,668.958130 
z"/>
<path fill="#A6A6A6" opacity="1.000000" stroke="none" 
	d="
M739.001831,872.898926 
	C739.510376,872.246521 740.409485,871.625977 741.636841,870.953247 
	C741.107544,871.577698 740.250000,872.254272 739.001831,872.898926 
z"/>
<path fill="#A6A6A6" opacity="1.000000" stroke="none" 
	d="
M895.602051,713.994995 
	C895.560669,713.381775 895.851135,712.759277 896.345581,711.972473 
	C896.344360,712.534058 896.139160,713.259888 895.602051,713.994995 
z"/>
<path fill="#A6A6A6" opacity="1.000000" stroke="none" 
	d="
M892.283081,719.914734 
	C892.378967,718.982056 892.851196,717.997070 893.597534,716.822937 
	C893.467590,717.710022 893.063477,718.786194 892.283081,719.914734 
z"/>
<path fill="#A6A6A6" opacity="1.000000" stroke="none" 
	d="
M883.503540,733.993896 
	C883.479187,733.378784 883.794739,732.756226 884.318481,731.966187 
	C884.298950,732.527954 884.071228,733.257202 883.503540,733.993896 
z"/>
<path fill="#A6A6A6" opacity="1.000000" stroke="none" 
	d="
M796.016479,832.932739 
	C796.365540,832.114258 796.888855,831.581177 797.683960,830.964722 
	C797.367493,831.660278 796.779175,832.439209 796.016479,832.932739 
z"/>
<path fill="#A6A6A6" opacity="1.000000" stroke="none" 
	d="
M859.328735,767.990723 
	C859.371704,767.368713 859.762024,766.743958 860.396851,765.979858 
	C860.942932,766.283325 861.244629,766.726257 861.546265,767.169189 
	C860.922913,767.442139 860.299561,767.715027 859.328735,767.990723 
z"/>
<path fill="#A6A6A6" opacity="1.000000" stroke="none" 
	d="
M521.027100,926.262695 
	C521.651062,926.329895 522.270203,926.747375 523.017639,927.419067 
	C522.693298,927.958923 522.240662,928.244568 521.788086,928.530151 
	C521.532776,927.891113 521.277588,927.252136 521.027100,926.262695 
z"/>
<path fill="#A6A6A6" opacity="1.000000" stroke="none" 
	d="
M855.310547,772.987000 
	C855.373535,772.364197 855.782104,771.740662 856.446655,770.992615 
	C856.353821,771.574158 856.004883,772.280212 855.310547,772.987000 
z"/>
<path fill="#A6A6A6" opacity="1.000000" stroke="none" 
	d="
M928.353271,641.961060 
	C928.153442,641.431580 928.252686,640.863281 928.579468,640.109131 
	C928.755432,640.589600 928.703979,641.255920 928.353271,641.961060 
z"/>
<path fill="#A6A6A6" opacity="1.000000" stroke="none" 
	d="
M513.214966,901.566162 
	C492.974670,900.903503 472.798828,900.770325 452.856720,898.543579 
	C424.889465,895.420654 397.666199,888.374878 371.118042,878.939392 
	C324.873047,862.503357 282.723145,838.954651 245.329453,806.976318 
	C217.353500,783.051819 192.289703,756.540771 171.334641,726.208801 
	C150.020844,695.357666 133.000107,662.329712 121.055885,626.772705 
	C116.725784,613.882324 113.094727,600.757141 109.115540,587.362427 
	C116.395859,584.918335 123.663170,582.684326 131.024231,580.820679 
	C143.642776,577.625916 148.372345,572.082947 149.401901,562.000793 
	C150.022110,555.927429 147.876328,549.550964 146.841187,543.332764 
	C142.539307,517.491150 141.219452,491.572235 142.685913,465.350250 
	C144.613617,430.880432 151.317169,397.509216 162.907669,365.090576 
	C175.899292,328.752991 194.142044,295.216644 218.412003,265.184265 
	C228.538925,252.652924 239.240417,240.464691 250.710480,229.165848 
	C272.739136,207.466080 297.611084,189.383057 324.574921,174.166580 
	C349.505951,160.097275 375.992584,149.826675 403.376495,141.878159 
	C423.506195,136.035248 444.128906,132.399658 465.069519,130.943954 
	C477.173248,130.102554 489.296600,129.422028 501.422821,129.061142 
	C513.579285,128.699356 521.512573,120.985268 522.037781,108.672661 
	C522.370361,100.876190 523.037720,93.093994 523.780640,84.911514 
	C554.556091,85.373680 584.562744,90.003014 614.024658,97.986839 
	C674.073120,114.259201 727.871399,142.352875 774.955383,183.219162 
	C815.434204,218.352631 847.947388,259.603149 872.397095,307.336456 
	C892.833252,347.234070 906.464966,389.303131 912.694336,433.595520 
	C915.350098,452.478790 915.711487,471.684784 917.139404,491.188721 
	C904.183655,492.032806 891.174072,492.018768 878.232849,492.951965 
	C866.102478,493.826691 857.705811,503.343536 856.969971,515.438721 
	C851.283691,608.911743 814.342468,687.843140 745.092590,750.806885 
	C696.409180,795.071106 638.971558,822.476624 573.806152,832.947815 
	C561.830872,834.872070 549.698120,835.948425 537.598755,836.932983 
	C523.732849,838.061157 514.440918,847.237488 514.070801,861.184998 
	C513.717285,874.507080 513.603149,887.835571 513.214966,901.566162 
M760.508545,479.970673 
	C762.287231,465.837616 765.139709,451.732971 765.515076,437.562744 
	C765.832703,425.575317 764.141602,413.344879 761.841736,401.513153 
	C754.645569,364.493591 736.039429,333.983185 706.572754,310.500397 
	C675.479492,285.721313 639.182068,274.869324 599.960632,274.190582 
	C558.145264,273.466949 516.308044,274.004486 474.480347,274.008362 
	C472.731842,274.008514 470.983368,274.179810 469.379272,274.263794 
	C469.379272,383.485596 469.379272,492.053833 469.379272,600.848267 
	C471.225586,600.934082 472.698242,601.062317 474.170868,601.062134 
	C516.498474,601.056396 558.828064,601.256409 601.152222,600.869019 
	C611.883118,600.770752 622.749695,599.583557 633.291016,597.540283 
	C671.765564,590.082397 704.546021,572.423645 729.738647,541.803040 
	C744.567810,523.778809 754.671387,503.401276 760.508545,479.970673 
M604.008850,630.436096 
	C606.134460,623.918152 608.260071,617.400269 610.700317,609.917786 
	C605.454895,610.817322 600.879089,609.035706 599.154419,615.049744 
	C591.302124,642.431580 576.976746,665.722168 555.263245,684.414551 
	C526.065063,709.550293 491.721161,721.757935 453.788422,722.774048 
	C413.327820,723.857849 372.816437,723.046814 332.327209,723.042358 
	C331.047974,723.042236 329.768707,722.813660 328.393677,722.682434 
	C328.393677,619.690430 328.393677,517.013062 328.393677,413.870422 
	C372.045868,413.870422 415.283600,413.870422 458.763580,413.870422 
	C458.763580,410.840424 458.763580,408.277832 458.763580,405.322327 
	C411.896057,405.322327 365.348267,405.322327 318.519653,405.322327 
	C318.519653,514.221375 318.519653,622.900208 318.519653,731.843750 
	C320.360352,731.931580 321.830139,732.062622 323.299927,732.062988 
	C362.956116,732.072144 402.617126,732.420166 442.265930,731.878052 
	C456.475403,731.683777 470.827850,730.294373 484.814484,727.779053 
	C518.110901,721.791077 547.026184,706.752136 570.805054,682.495972 
	C585.302795,667.707214 596.028015,650.361328 604.008850,630.436096 
z"/>
<path fill="#C29D2F" opacity="1.000000" stroke="none" 
	d="
M557.037048,861.045410 
	C561.101501,860.589111 564.726929,859.972900 568.374390,859.786255 
	C577.686035,859.309753 584.726807,864.729370 586.035278,873.158997 
	C587.499939,882.594971 582.807495,889.921814 573.348450,892.160767 
	C568.232910,893.371704 562.931274,893.796814 557.377502,894.626587 
	C555.952393,884.238220 554.678162,874.378174 553.204285,864.548157 
	C552.753052,861.538269 554.417847,861.195190 557.037048,861.045410 
M582.429443,879.617371 
	C584.437866,865.785095 575.623535,860.481445 556.992493,864.657898 
	C558.157715,873.348999 559.327393,882.073914 560.535034,891.081726 
	C564.718567,890.451843 568.332031,890.052429 571.882324,889.338684 
	C576.958191,888.318298 580.598877,885.479675 582.429443,879.617371 
z"/>
<path fill="#C29E2F" opacity="1.000000" stroke="none" 
	d="
M914.874390,536.856079 
	C913.719604,537.957581 912.698303,538.805481 911.557861,539.438904 
	C903.005310,544.189148 902.997986,544.175903 902.258667,554.819824 
	C905.448242,555.659729 908.698547,556.471252 911.895447,557.456055 
	C912.110779,557.522339 911.923523,558.895691 911.923523,560.204041 
	C900.843872,558.809265 890.179382,557.466858 878.831543,556.038330 
	C879.752075,550.358582 880.283081,544.923645 881.586304,539.680603 
	C882.762207,534.950073 886.082397,531.889404 891.222473,531.646912 
	C897.061401,531.371521 901.133362,533.991455 903.081909,540.325745 
	C906.537903,538.479553 909.647766,536.730469 912.865967,535.210510 
	C913.268311,535.020447 914.243103,536.042542 914.874390,536.856079 
M900.046997,545.498474 
	C899.973022,538.620850 897.820679,535.606445 892.642578,535.128540 
	C887.761475,534.678040 884.871460,537.595032 883.719421,544.327393 
	C883.254578,547.043457 883.033936,549.801270 882.671326,552.794678 
	C888.313171,553.540405 893.365234,554.208191 898.807190,554.927551 
	C899.229309,551.912292 899.616516,549.146423 900.046997,545.498474 
z"/>
<path fill="#C19D2F" opacity="1.000000" stroke="none" 
	d="
M847.199951,715.770508 
	C848.889893,715.758728 850.172607,715.758728 851.455383,715.758728 
	C851.589722,716.232910 851.724060,716.707092 851.858459,717.181335 
	C850.165222,717.773315 848.338135,719.109131 846.801208,718.832703 
	C838.738464,717.382202 833.996033,721.052002 831.071899,728.636658 
	C833.508057,730.409607 836.139343,732.324585 838.770630,734.239502 
	C838.766479,734.733459 838.762329,735.227356 838.758179,735.721313 
	C837.506714,735.789368 835.884094,736.402222 835.061157,735.841431 
	C826.723999,730.160339 818.517456,724.287537 809.997620,718.273193 
	C812.477173,714.734436 814.687256,711.445496 817.035339,708.258362 
	C821.375488,702.367310 825.912781,700.325378 830.882141,701.888123 
	C836.492554,703.652527 838.853516,707.428040 839.133057,715.782227 
	C841.653809,715.782227 844.223328,715.782227 847.199951,715.770508 
M834.149048,708.400818 
	C828.292480,701.613403 821.280762,704.354858 815.143127,717.527405 
	C819.389099,720.501160 823.661377,723.493286 828.088562,726.593872 
	C829.904724,724.039307 831.388062,722.062256 832.753845,720.007019 
	C834.997253,716.630981 836.993103,713.175415 834.149048,708.400818 
z"/>
<path fill="#BE9B2F" opacity="1.000000" stroke="none" 
	d="
M635.707031,843.752808 
	C637.552795,843.553467 639.017212,843.471863 640.481628,843.390198 
	C640.592468,844.020996 640.703369,844.651794 640.814209,845.282532 
	C634.949280,847.199890 629.084351,849.117188 622.713501,851.199890 
	C623.808716,854.838196 624.835388,858.248901 626.016846,862.173645 
	C630.867249,860.699524 635.388367,859.245850 639.967285,858.006165 
	C640.807983,857.778564 641.883972,858.419983 642.851318,858.660278 
	C642.191223,859.416016 641.671265,860.573547 640.847778,860.860779 
	C636.326233,862.437500 631.730286,863.801086 627.030579,865.278564 
	C628.242065,869.119385 629.336914,872.590515 630.635132,876.706482 
	C636.937744,874.812134 643.060364,872.971863 649.183044,871.131653 
	C649.508545,871.423645 649.834106,871.715637 650.159668,872.007629 
	C649.428650,872.930420 648.873901,874.376404 647.938110,874.691650 
	C641.516296,876.855713 635.014648,878.782837 628.117310,880.916626 
	C624.790222,870.359802 621.552795,860.087341 618.143372,849.269287 
	C623.995911,847.430420 629.660767,845.650513 635.707031,843.752808 
z"/>
<path fill="#BD9A2E" opacity="1.000000" stroke="none" 
	d="
M797.188232,760.604858 
	C793.186401,764.377625 789.300598,767.777466 785.652466,770.969238 
	C789.226929,774.715637 791.816589,777.429871 794.695007,780.446838 
	C798.765381,775.846130 803.011780,771.046509 807.258118,766.246887 
	C808.066162,766.681030 808.874268,767.115173 809.682312,767.549316 
	C809.401794,768.719238 809.499146,770.253967 808.779236,770.999878 
	C804.159668,775.786560 799.360840,780.400024 794.868958,784.825806 
	C787.299805,777.009827 779.725708,769.188721 771.341492,760.531067 
	C775.159424,756.977234 779.984741,752.407898 784.933289,747.976074 
	C785.562073,747.413025 786.835388,747.569641 787.810120,747.392822 
	C787.532104,748.368408 787.557068,749.656311 786.926331,750.268433 
	C783.121399,753.960632 779.166504,757.498230 775.312256,761.041443 
	C778.755066,764.306641 781.376343,766.792664 784.629822,769.878296 
	C787.309204,766.984802 790.365845,763.478516 793.702637,760.262939 
	C794.330261,759.658081 796.074951,760.212463 797.188232,760.604858 
z"/>
<path fill="#C09C2F" opacity="1.000000" stroke="none" 
	d="
M741.928772,815.080444 
	C741.315552,816.585388 740.388000,818.187134 740.837646,819.137451 
	C741.879456,821.339600 743.587158,823.226685 744.641663,826.481812 
	C743.456116,826.268616 741.699463,826.482239 741.172241,825.776978 
	C735.032532,817.562988 729.078125,809.210571 722.915100,800.673767 
	C727.020691,797.753296 730.681824,794.893311 734.591248,792.426697 
	C740.822449,788.495239 746.614563,789.366821 750.510498,794.506287 
	C754.555664,799.842529 753.623352,805.583984 747.779480,810.663452 
	C746.031555,812.182800 744.091858,813.481506 741.928772,815.080444 
M731.143921,798.572693 
	C730.064636,799.486816 728.985291,800.401001 727.790955,801.412659 
	C731.129211,805.935791 734.215576,810.117676 737.406982,814.441895 
	C740.321777,812.299683 742.786072,810.632751 745.088440,808.766113 
	C749.696777,805.029541 750.566101,800.685547 747.644897,796.727478 
	C744.654175,792.675049 740.664795,792.300720 735.398621,795.617615 
	C734.141052,796.409729 732.945984,797.300903 731.143921,798.572693 
z"/>
<path fill="#BF9B2F" opacity="1.000000" stroke="none" 
	d="
M872.222229,602.071533 
	C882.954712,600.658386 893.273010,599.283936 903.591370,597.909485 
	C903.826721,598.445801 904.062073,598.982056 904.297424,599.518372 
	C902.641235,600.338013 900.976746,601.861450 899.330444,601.842041 
	C894.828003,601.789062 892.659607,603.806152 891.987671,608.059875 
	C891.731506,609.681580 891.259766,611.323486 890.575317,612.813354 
	C888.320862,617.720459 888.207031,621.883118 893.561218,625.032959 
	C894.621460,625.656738 894.854126,627.687073 895.468445,629.068787 
	C895.018677,629.329956 894.568909,629.591064 894.119080,629.852234 
	C885.575745,622.315063 876.957886,614.859741 868.535217,607.190063 
	C866.067383,604.942871 867.296448,603.156738 872.222229,602.071533 
M873.754150,607.654724 
	C877.633057,611.010803 881.512024,614.366943 885.865784,618.133911 
	C887.408691,613.005859 888.804688,608.366028 890.372986,603.153442 
	C884.273071,603.877197 878.882568,604.497009 873.508850,605.237915 
	C873.325439,605.263245 873.309509,606.503296 873.754150,607.654724 
z"/>
<path fill="#C19D2F" opacity="1.000000" stroke="none" 
	d="
M677.845093,840.446777 
	C673.186707,834.521057 673.814026,829.266479 680.004150,825.606018 
	C683.167175,823.735596 687.061584,823.046814 690.693970,822.082397 
	C691.268433,821.929932 692.206970,823.148926 692.977173,823.733765 
	C692.245728,824.167786 691.559387,824.723389 690.774963,825.014648 
	C687.552979,826.210632 683.895630,826.759033 681.209595,828.679932 
	C679.550842,829.866272 678.182800,833.543823 678.844177,835.280273 
	C679.457092,836.889648 682.912109,838.139343 685.167542,838.228027 
	C688.413696,838.355835 691.696045,837.211914 694.982727,836.751831 
	C698.969543,836.193665 702.217407,837.283142 704.034119,841.229919 
	C705.842224,845.158264 704.834412,849.021851 701.620117,851.010071 
	C697.394348,853.623718 692.444946,855.151062 687.667786,856.723267 
	C686.637573,857.062317 685.015137,855.601746 683.344543,854.819885 
	C688.744019,853.263794 693.089172,852.392029 697.108032,850.730713 
	C700.219299,849.444580 702.192139,846.615845 700.836670,843.017944 
	C699.472656,839.397034 696.205444,840.073792 693.160706,840.248230 
	C688.161194,840.534668 683.146973,840.564636 677.845093,840.446777 
z"/>
<path fill="#C09C2F" opacity="1.000000" stroke="none" 
	d="
M864.645874,665.371704 
	C868.836792,667.449707 872.705200,669.339172 876.587891,671.235535 
	C876.179626,675.110535 874.228699,674.099731 872.132996,673.072937 
	C864.386536,669.277649 856.613892,665.535583 848.517700,661.611938 
	C847.043945,664.475708 845.793335,667.155273 844.284058,669.680115 
	C843.855042,670.397766 842.673035,670.665283 841.836426,671.139282 
	C841.700684,670.288879 841.184631,669.259216 841.487976,668.615723 
	C844.676147,661.851929 847.959534,655.131653 851.334351,648.459045 
	C851.667664,647.800171 852.782410,647.536499 853.534485,647.089417 
	C853.697937,648.034363 854.252869,649.132507 853.953857,649.896423 
	C852.930603,652.510254 851.607483,655.006714 850.071777,658.235352 
	C854.901184,660.589722 859.612305,662.886414 864.645874,665.371704 
z"/>
<path fill="#D2AD3C" opacity="1.000000" stroke="none" 
	d="
M469.025299,78.065338 
	C469.015015,75.268051 469.015015,72.957375 469.015015,69.133110 
	C471.517303,70.454300 473.669403,70.991348 474.923920,72.354462 
	C481.075378,79.038635 486.988007,85.942596 493.120300,92.922920 
	C493.120300,85.942146 493.115021,79.420395 493.122284,72.898666 
	C493.126465,69.142883 493.135590,69.142891 498.210693,69.192673 
	C498.210693,80.205986 498.210693,91.240173 498.210693,103.372581 
	C496.370758,102.280594 494.269745,101.594681 492.980194,100.172813 
	C486.854736,93.418755 480.950317,86.464203 474.500793,79.044434 
	C474.500793,87.518700 474.500793,95.311569 474.500793,103.552071 
	C473.231873,103.613373 471.872681,103.679031 469.035583,103.816086 
	C469.035583,95.082222 469.035583,86.817085 469.025299,78.065338 
z"/>
<path fill="#D2AD3D" opacity="1.000000" stroke="none" 
	d="
M122.001816,559.142944 
	C111.652786,560.822876 101.707977,562.439026 90.702888,564.227478 
	C90.059952,556.946655 88.699562,550.074219 89.051353,543.290588 
	C89.459465,535.421204 95.845985,529.787598 103.261017,529.039734 
	C111.567520,528.201904 118.410507,531.844421 120.973808,539.582581 
	C122.830688,545.187988 123.467789,551.208130 124.442215,557.077576 
	C124.531807,557.617188 123.120430,558.406006 122.001816,559.142944 
M105.297798,556.912720 
	C109.829834,556.122559 114.361862,555.332336 119.748398,554.393127 
	C118.781281,549.776184 118.321388,545.323364 116.873405,541.219177 
	C114.906525,535.644348 109.752106,533.167297 103.636543,534.022217 
	C97.870842,534.828125 93.349098,539.098389 93.153023,544.893372 
	C93.006226,549.231873 93.897865,553.605530 94.371506,558.413940 
	C98.260872,557.863220 101.342941,557.426758 105.297798,556.912720 
z"/>
<path fill="#D2AD3D" opacity="1.000000" stroke="none" 
	d="
M256.049622,155.586288 
	C269.913544,161.002304 272.755981,175.338135 262.117737,185.131805 
	C258.356262,188.594650 254.167374,191.593216 249.752029,195.142670 
	C246.121124,190.576202 242.657288,186.213745 239.186676,181.856705 
	C235.785812,177.587265 232.378052,173.323303 228.511566,168.478348 
	C237.149841,162.716003 243.296524,152.948654 256.049622,155.586288 
M236.797272,167.514420 
	C236.674561,168.527786 236.060745,169.918884 236.504837,170.496292 
	C241.128769,176.508209 245.922714,182.389359 250.933746,188.636169 
	C254.177185,186.014954 257.203156,183.950500 259.766144,181.417603 
	C264.868652,176.375015 265.093567,169.837799 260.687988,164.361679 
	C256.651184,159.343933 249.950928,158.275162 244.104355,161.921951 
	C241.719955,163.409225 239.592896,165.309067 236.797272,167.514420 
z"/>
<path fill="#D2AD3D" opacity="1.000000" stroke="none" 
	d="
M178.382828,274.607971 
	C170.968109,278.118866 164.394241,277.116943 158.680267,271.948395 
	C153.430481,267.199707 151.615051,261.170593 153.854294,254.318512 
	C156.245178,247.002472 160.966263,242.064041 168.859802,240.742477 
	C175.778748,239.584076 183.733551,243.849777 186.958817,250.428360 
	C190.379868,257.406281 188.294449,266.541840 181.954315,272.109894 
	C180.963577,272.979980 179.795700,273.648376 178.382828,274.607971 
M157.854904,257.733490 
	C158.051102,265.890533 162.906342,271.478607 170.140686,271.873627 
	C176.799484,272.237213 183.246750,266.417572 183.946198,259.412048 
	C184.603226,252.831467 179.420151,246.619873 172.388000,245.560257 
	C165.685913,244.550385 160.081238,248.945251 157.854904,257.733490 
z"/>
<path fill="#D2AD3D" opacity="1.000000" stroke="none" 
	d="
M126.844650,374.149353 
	C129.072479,374.932404 130.923996,375.607635 133.149872,376.419373 
	C132.610748,377.975342 132.151840,379.299835 131.593155,380.912292 
	C120.894287,377.499268 110.508995,374.186279 99.185936,370.574127 
	C101.442863,364.490845 103.178223,358.648285 105.771317,353.215027 
	C107.641541,349.296417 111.355988,346.914551 115.983536,347.425232 
	C122.052628,348.095001 126.102654,351.364441 127.201378,358.158325 
	C131.388718,356.939545 135.260742,355.812531 139.299759,354.636902 
	C138.820114,359.275879 138.912460,359.738495 133.706818,360.777679 
	C128.007599,361.915405 124.923141,364.974884 124.388016,370.525055 
	C124.282425,371.620148 125.734589,372.865479 126.844650,374.149353 
M106.508476,367.691132 
	C107.764603,368.118073 109.015045,368.562653 110.277756,368.969147 
	C120.078568,372.124084 121.300606,371.346832 122.675636,361.101013 
	C122.719696,360.772736 122.794258,360.439087 122.773895,360.113007 
	C122.545433,356.454254 121.013901,353.858795 117.238785,352.781097 
	C113.679047,351.764893 110.654099,352.734680 109.221855,355.896912 
	C107.628510,359.414825 106.966393,363.354492 106.508476,367.691132 
z"/>
<path fill="#D2AD3E" opacity="1.000000" stroke="none" 
	d="
M322.972107,140.756287 
	C324.525330,140.853928 325.734100,141.129349 326.942871,141.404770 
	C326.368164,142.417908 326.047607,143.870605 325.177887,144.373428 
	C319.149261,147.858780 313.006439,151.146561 306.208862,154.877182 
	C300.760162,144.904572 295.482849,135.245651 289.880127,124.991135 
	C296.595490,121.323647 302.766693,117.816277 309.108398,114.650497 
	C309.973480,114.218651 311.689789,115.492035 314.279816,116.439857 
	C307.374847,120.334633 302.077423,123.322685 296.477722,126.481239 
	C298.138885,129.553864 299.612396,132.279327 301.004395,134.854034 
	C307.081573,134.121155 311.025299,127.037254 317.425476,129.197937 
	C317.643066,129.797729 317.860657,130.397522 318.078217,130.997314 
	C313.373749,133.632965 308.669312,136.268600 303.502808,139.163086 
	C305.140625,142.342728 306.616302,145.207687 308.393768,148.658493 
	C313.387024,145.948761 318.007355,143.441406 322.972107,140.756287 
z"/>
<path fill="#D2AD3E" opacity="1.000000" stroke="none" 
	d="
M399.064240,97.915077 
	C398.083954,93.461586 397.202271,89.406952 396.237457,85.372192 
	C395.434265,82.013084 396.621674,80.619156 400.495514,81.313835 
	C401.980804,87.763786 403.369812,94.388603 405.060394,100.935547 
	C406.255096,105.562134 408.977203,108.527496 414.319061,108.135765 
	C420.566864,107.677597 423.998688,104.342018 423.228302,98.089600 
	C422.360748,91.048294 420.675903,84.107689 419.309448,76.928345 
	C422.006439,75.383774 423.895752,75.408493 424.592590,79.007240 
	C425.727722,84.869720 427.197479,90.678505 428.076111,96.576973 
	C429.390106,105.398186 425.033752,110.875732 415.789337,112.632362 
	C408.410614,114.034470 402.285889,109.969788 400.085052,102.189377 
	C399.723816,100.912262 399.444183,99.612061 399.064240,97.915077 
z"/>
<path fill="#D2AD3D" opacity="1.000000" stroke="none" 
	d="
M119.062416,446.837646 
	C118.121025,447.499969 116.888412,448.307159 116.351540,447.978363 
	C107.154457,442.345642 97.993484,436.649475 88.943481,430.783813 
	C86.193733,429.001587 86.701553,425.281342 89.891586,424.287903 
	C100.905754,420.857758 112.002609,417.693146 123.122391,414.411407 
	C123.888206,418.383484 122.322105,420.152100 118.919403,420.508301 
	C115.202637,420.897369 113.469376,422.983276 113.382782,426.688507 
	C113.340355,428.503754 113.260361,430.400787 112.714378,432.106171 
	C111.081261,437.207336 111.750259,441.108063 117.281258,443.331940 
	C118.161888,443.686005 118.503914,445.379608 119.062416,446.837646 
M98.077629,426.398590 
	C96.556435,426.907745 95.035248,427.416901 92.786964,428.169434 
	C98.075699,431.417725 102.684067,434.248169 107.809059,437.395905 
	C108.542595,432.340942 109.173889,427.990540 109.876381,423.149475 
	C105.798393,424.256653 102.305336,425.205017 98.077629,426.398590 
z"/>
<path fill="#D3AF41" opacity="1.000000" stroke="none" 
	d="
M108.929688,484.369934 
	C112.035370,484.366852 114.653397,484.366852 117.562927,484.366852 
	C117.562927,486.254669 117.562927,487.656677 117.562927,489.822998 
	C107.007301,489.822998 96.596992,489.924744 86.195129,489.674896 
	C85.082558,489.648224 84.019226,487.570831 82.933044,486.444763 
	C83.231529,485.754181 83.530014,485.063629 83.828506,484.373047 
	C92.033020,484.373047 100.237526,484.373047 108.929688,484.369934 
z"/>
<path fill="#D2AD3D" opacity="1.000000" stroke="none" 
	d="
M139.629623,307.402588 
	C144.431503,309.742432 148.857101,312.016479 153.405334,314.010834 
	C156.593811,315.408875 156.946640,317.119446 154.352203,319.992004 
	C144.524963,315.263367 134.594315,310.484985 124.323593,305.542938 
	C124.935204,304.034698 125.459824,302.740997 126.188797,300.943359 
	C130.761444,303.130524 135.033585,305.173920 139.629623,307.402588 
z"/>
<path fill="#FEE9B5" opacity="1.000000" stroke="none" 
	d="
M760.372681,480.361847 
	C754.671387,503.401276 744.567810,523.778809 729.738647,541.803040 
	C704.546021,572.423645 671.765564,590.082397 633.291016,597.540283 
	C622.749695,599.583557 611.883118,600.770752 601.152222,600.869019 
	C558.828064,601.256409 516.498474,601.056396 474.170868,601.062134 
	C472.698242,601.062317 471.225586,600.934082 469.379272,600.848267 
	C469.379272,492.053833 469.379272,383.485596 469.379272,274.263794 
	C470.983368,274.179810 472.731842,274.008514 474.480347,274.008362 
	C516.308044,274.004486 558.145264,273.466949 599.960632,274.190582 
	C639.182068,274.869324 675.479492,285.721313 706.572754,310.500397 
	C736.039429,333.983185 754.645569,364.493591 761.841736,401.513153 
	C764.141602,413.344879 765.832703,425.575317 765.515076,437.562744 
	C765.139709,451.732971 762.287231,465.837616 760.372681,480.361847 
M478.084808,399.500000 
	C478.084808,463.569183 478.084808,527.638367 478.084808,591.866577 
	C480.215729,591.988037 481.528259,592.128662 482.840759,592.128052 
	C521.661011,592.109802 560.481567,592.162476 599.301392,592.014160 
	C620.951416,591.931458 641.910950,587.812439 662.030273,579.839966 
	C700.939392,564.422119 728.899536,537.705994 744.682007,498.719147 
	C756.603577,469.269440 758.767029,438.729828 753.630371,407.649261 
	C749.021057,379.759369 737.475525,354.819733 718.314758,333.992798 
	C686.812683,299.751282 646.678040,284.141418 600.869568,283.164185 
	C561.733398,282.329254 522.566040,282.954620 483.412445,282.951904 
	C481.806213,282.951813 480.199951,283.133667 478.084961,283.261475 
	C478.084961,321.942596 478.084961,360.221283 478.084808,399.500000 
z"/>
<path fill="#FDE9B5" opacity="1.000000" stroke="none" 
	d="
M603.903442,630.808350 
	C596.028015,650.361328 585.302795,667.707214 570.805054,682.495972 
	C547.026184,706.752136 518.110901,721.791077 484.814484,727.779053 
	C470.827850,730.294373 456.475403,731.683777 442.265930,731.878052 
	C402.617126,732.420166 362.956116,732.072144 323.299927,732.062988 
	C321.830139,732.062622 320.360352,731.931580 318.519653,731.843750 
	C318.519653,622.900208 318.519653,514.221375 318.519653,405.322327 
	C365.348267,405.322327 411.896057,405.322327 458.763580,405.322327 
	C458.763580,408.277832 458.763580,410.840424 458.763580,413.870422 
	C415.283600,413.870422 372.045868,413.870422 328.393677,413.870422 
	C328.393677,517.013062 328.393677,619.690430 328.393677,722.682434 
	C329.768707,722.813660 331.047974,723.042236 332.327209,723.042358 
	C372.816437,723.046814 413.327820,723.857849 453.788422,722.774048 
	C491.721161,721.757935 526.065063,709.550293 555.263245,684.414551 
	C576.976746,665.722168 591.302124,642.431580 599.154419,615.049744 
	C600.879089,609.035706 605.454895,610.817322 610.700317,609.917786 
	C608.260071,617.400269 606.134460,623.918152 603.903442,630.808350 
z"/>
<path fill="#040301" opacity="1.000000" stroke="none" 
	d="
M582.307861,879.992920 
	C580.598877,885.479675 576.958191,888.318298 571.882324,889.338684 
	C568.332031,890.052429 564.718567,890.451843 560.535034,891.081726 
	C559.327393,882.073914 558.157715,873.348999 556.992493,864.657898 
	C575.623535,860.481445 584.437866,865.785095 582.307861,879.992920 
z"/>
<path fill="#060501" opacity="1.000000" stroke="none" 
	d="
M900.025391,545.939514 
	C899.616516,549.146423 899.229309,551.912292 898.807190,554.927551 
	C893.365234,554.208191 888.313171,553.540405 882.671326,552.794678 
	C883.033936,549.801270 883.254578,547.043457 883.719421,544.327393 
	C884.871460,537.595032 887.761475,534.678040 892.642578,535.128540 
	C897.820679,535.606445 899.973022,538.620850 900.025391,545.939514 
z"/>
<path fill="#050401" opacity="1.000000" stroke="none" 
	d="
M834.384033,708.700684 
	C836.993103,713.175415 834.997253,716.630981 832.753845,720.007019 
	C831.388062,722.062256 829.904724,724.039307 828.088562,726.593872 
	C823.661377,723.493286 819.389099,720.501160 815.143127,717.527405 
	C821.280762,704.354858 828.292480,701.613403 834.384033,708.700684 
z"/>
<path fill="#060501" opacity="1.000000" stroke="none" 
	d="
M731.433044,798.359619 
	C732.945984,797.300903 734.141052,796.409729 735.398621,795.617615 
	C740.664795,792.300720 744.654175,792.675049 747.644897,796.727478 
	C750.566101,800.685547 749.696777,805.029541 745.088440,808.766113 
	C742.786072,810.632751 740.321777,812.299683 737.406982,814.441895 
	C734.215576,810.117676 731.129211,805.935791 727.790955,801.412659 
	C728.985291,800.401001 730.064636,799.486816 731.433044,798.359619 
z"/>
<path fill="#080702" opacity="1.000000" stroke="none" 
	d="
M873.484863,607.415894 
	C873.309509,606.503296 873.325439,605.263245 873.508850,605.237915 
	C878.882568,604.497009 884.273071,603.877197 890.372986,603.153442 
	C888.804688,608.366028 887.408691,613.005859 885.865784,618.133911 
	C881.512024,614.366943 877.633057,611.010803 873.484863,607.415894 
z"/>
<path fill="#F8F3E3" opacity="1.000000" stroke="none" 
	d="
M104.861404,556.951538 
	C101.342941,557.426758 98.260872,557.863220 94.371506,558.413940 
	C93.897865,553.605530 93.006226,549.231873 93.153023,544.893372 
	C93.349098,539.098389 97.870842,534.828125 103.636543,534.022217 
	C109.752106,533.167297 114.906525,535.644348 116.873405,541.219177 
	C118.321388,545.323364 118.781281,549.776184 119.748398,554.393127 
	C114.361862,555.332336 109.829834,556.122559 104.861404,556.951538 
z"/>
<path fill="#F8F3E3" opacity="1.000000" stroke="none" 
	d="
M237.072998,167.267807 
	C239.592896,165.309067 241.719955,163.409225 244.104355,161.921951 
	C249.950928,158.275162 256.651184,159.343933 260.687988,164.361679 
	C265.093567,169.837799 264.868652,176.375015 259.766144,181.417603 
	C257.203156,183.950500 254.177185,186.014954 250.933746,188.636169 
	C245.922714,182.389359 241.128769,176.508209 236.504837,170.496292 
	C236.060745,169.918884 236.674561,168.527786 237.072998,167.267807 
z"/>
<path fill="#F8F3E3" opacity="1.000000" stroke="none" 
	d="
M157.888763,257.318329 
	C160.081238,248.945251 165.685913,244.550385 172.388000,245.560257 
	C179.420151,246.619873 184.603226,252.831467 183.946198,259.412048 
	C183.246750,266.417572 176.799484,272.237213 170.140686,271.873627 
	C162.906342,271.478607 158.051102,265.890533 157.888763,257.318329 
z"/>
<path fill="#F7F1DF" opacity="1.000000" stroke="none" 
	d="
M106.203674,367.400848 
	C106.966393,363.354492 107.628510,359.414825 109.221855,355.896912 
	C110.654099,352.734680 113.679047,351.764893 117.238785,352.781097 
	C121.013901,353.858795 122.545433,356.454254 122.773895,360.113007 
	C122.794258,360.439087 122.719696,360.772736 122.675636,361.101013 
	C121.300606,371.346832 120.078568,372.124084 110.277756,368.969147 
	C109.015045,368.562653 107.764603,368.118073 106.203674,367.400848 
z"/>
<path fill="#F7F0DD" opacity="1.000000" stroke="none" 
	d="
M98.444954,426.276001 
	C102.305336,425.205017 105.798393,424.256653 109.876381,423.149475 
	C109.173889,427.990540 108.542595,432.340942 107.809059,437.395905 
	C102.684067,434.248169 98.075699,431.417725 92.786964,428.169434 
	C95.035248,427.416901 96.556435,426.907745 98.444954,426.276001 
z"/>
<path fill="#A6A6A6" opacity="1.000000" stroke="none" 
	d="
M478.084900,399.000000 
	C478.084961,360.221283 478.084961,321.942596 478.084961,283.261475 
	C480.199951,283.133667 481.806213,282.951813 483.412445,282.951904 
	C522.566040,282.954620 561.733398,282.329254 600.869568,283.164185 
	C646.678040,284.141418 686.812683,299.751282 718.314758,333.992798 
	C737.475525,354.819733 749.021057,379.759369 753.630371,407.649261 
	C758.767029,438.729828 756.603577,469.269440 744.682007,498.719147 
	C728.899536,537.705994 700.939392,564.422119 662.030273,579.839966 
	C641.910950,587.812439 620.951416,591.931458 599.301392,592.014160 
	C560.481567,592.162476 521.661011,592.109802 482.840759,592.128052 
	C481.528259,592.128662 480.215729,591.988037 478.084808,591.866577 
	C478.084808,527.638367 478.084808,463.569183 478.084900,399.000000 
M506.700256,414.824524 
	C500.766510,412.994202 494.832794,411.163849 488.805908,409.304810 
	C487.039581,418.503754 487.167084,418.568756 494.250641,420.548889 
	C523.951965,428.851807 549.784180,443.474915 569.888123,467.297668 
	C593.100159,494.803345 604.635132,526.643860 605.000916,562.578003 
	C605.064880,568.864258 605.010010,575.151794 605.010010,581.307129 
	C614.357971,583.069885 615.335999,582.595459 614.911194,574.179138 
	C614.242737,560.936584 614.020813,547.544189 611.766113,534.534790 
	C606.713013,505.379608 593.897095,479.616333 573.971191,457.689423 
	C555.681946,437.563446 533.151611,423.759644 506.700256,414.824524 
z"/>
<path fill="#FBE7B4" opacity="1.000000" stroke="none" 
	d="
M507.082550,414.921143 
	C533.151611,423.759644 555.681946,437.563446 573.971191,457.689423 
	C593.897095,479.616333 606.713013,505.379608 611.766113,534.534790 
	C614.020813,547.544189 614.242737,560.936584 614.911194,574.179138 
	C615.335999,582.595459 614.357971,583.069885 605.010010,581.307129 
	C605.010010,575.151794 605.064880,568.864258 605.000916,562.578003 
	C604.635132,526.643860 593.100159,494.803345 569.888123,467.297668 
	C549.784180,443.474915 523.951965,428.851807 494.250641,420.548889 
	C487.167084,418.568756 487.039581,418.503754 488.805908,409.304810 
	C494.832794,411.163849 500.766510,412.994202 507.082550,414.921143 
z"/>
</svg>